<?xml version="1.0" encoding="UTF-8" standalone="no"?>
<!-- Created with Inkscape (http://www.inkscape.org/) -->

<svg
   width="7.8054543mm"
   height="6.4306207mm"
   viewBox="0 0 7.8054546 6.430621"
   version="1.1"
   id="svg1"
   xmlns="http://www.w3.org/2000/svg"
   xmlns:svg="http://www.w3.org/2000/svg">
  <defs
     id="defs1" />
  <g
     id="layer1"
     transform="translate(-124.19423,-264.01458)">
    <path
       d="m 127.30937,264.01458 c -0.665,-3e-5 -1.20409,0.53906 -1.20406,1.20406 v 0.37827 c 0,0.12977 -0.10536,0.23513 -0.23513,0.23513 h -1.18339 c -0.31006,0 -0.54285,0.2833 -0.48317,0.58756 l 0.53433,2.7249 c 0.14821,0.75563 0.81075,1.3007 1.58078,1.3007 h 3.65818 c 0.76572,0 1.42034,-0.55168 1.54977,-1.30638 l 0.46561,-2.71664 c 0.0529,-0.30828 -0.18435,-0.59014 -0.49713,-0.59014 h -1.18287 c -0.12977,0 -0.23513,-0.10536 -0.23513,-0.23513 v -0.37827 c 3e-5,-0.665 -0.53906,-1.20409 -1.20406,-1.20406 z m 0.20774,0.58291 h 1.14308 c 0.33609,0 0.60668,0.27059 0.60668,0.60668 v 0.39274 c 0,0.12977 -0.10535,0.23513 -0.23512,0.23513 h -1.88619 c -0.12977,0 -0.23513,-0.10536 -0.23513,-0.23513 v -0.39274 c 0,-0.33609 0.27059,-0.60668 0.60668,-0.60668 z m -2.15594,1.66243 h 0.68523 4.51393 0.26304 c 0.25094,0 0.44134,0.22551 0.39894,0.47284 l -0.37414,2.17971 c -0.10384,0.60549 -0.62849,1.04852 -1.24282,1.04852 h -2.93522 c -0.61779,0 -1.14925,-0.43764 -1.26814,-1.04387 l -0.42839,-2.18643 c -0.0479,-0.2441 0.13882,-0.47077 0.38757,-0.47077 z"
       style="fill:#000000;fill-opacity:1;stroke-width:0.683754;stroke-linecap:square;stroke-linejoin:round;stroke-opacity:0.866667;paint-order:stroke fill markers"
       id="path253-8-6" />
  </g>
</svg>
