<?xml version="1.0" encoding="UTF-8" standalone="no"?>
<!-- Created with Inkscape (http://www.inkscape.org/) -->

<svg
   width="32"
   height="32"
   viewBox="0 0 8.4666667 8.4666666"
   version="1.1"
   id="svg1"
   xml:space="preserve"
   inkscape:version="1.4.2 (f4327f4, 2025-05-13)"
   sodipodi:docname="favicon-darksvg.svg"
   xmlns:inkscape="http://www.inkscape.org/namespaces/inkscape"
   xmlns:sodipodi="http://sodipodi.sourceforge.net/DTD/sodipodi-0.dtd"
   xmlns="http://www.w3.org/2000/svg"
   xmlns:svg="http://www.w3.org/2000/svg"><sodipodi:namedview
     id="namedview1"
     pagecolor="#ffffff"
     bordercolor="#000000"
     borderopacity="0.25"
     inkscape:showpageshadow="2"
     inkscape:pageopacity="0.0"
     inkscape:pagecheckerboard="0"
     inkscape:deskcolor="#d1d1d1"
     inkscape:document-units="mm"
     showguides="true"
     inkscape:zoom="22.627417"
     inkscape:cx="9.7227183"
     inkscape:cy="18.627844"
     inkscape:window-width="3440"
     inkscape:window-height="1369"
     inkscape:window-x="1912"
     inkscape:window-y="-8"
     inkscape:window-maximized="1"
     inkscape:current-layer="layer1"><inkscape:page
       x="0"
       y="0"
       width="8.4666672"
       height="8.4666662"
       id="page1"
       margin="0"
       bleed="0" /></sodipodi:namedview><defs
     id="defs1"><style
       id="style1">
      .cls-1 {
        fill: #0c3641;
      }

      .cls-1, .cls-2, .cls-3, .cls-4, .cls-5 {
        stroke-width: 0px;
      }

      .cls-2 {
        fill: #737d86;
      }

      .cls-3 {
        fill: #445660;
      }

      .cls-4 {
        fill: #0b3641;
      }

      .cls-5 {
        fill: #0e3742;
      }
    </style></defs><g
     inkscape:label="Layer 1"
     inkscape:groupmode="layer"
     id="layer1"
     transform="translate(487.04419,-63.984408)"><path
       class="cls-4"
       d="m -483.48681,66.475333 h 0.0362 c 0.0446,0.02799 0.0964,0.03872 0.14442,0.0584 0.0626,0.02558 0.1225,0.05513 0.17843,0.0917 0.0285,0.01858 0.0579,0.03607 0.0869,0.0532 0.0238,0.01424 0.039,0.03655 0.0622,0.05175 0.0274,0.01786 0.0588,0.02461 0.0856,0.04223 0.0399,0.0263 0.0718,0.06105 0.10547,0.09411 0.0142,0.01349 0.0265,0.0269 0.0458,0.03475 0.0317,0.01292 0.062,0.0292 0.0801,0.05478 0.047,0.007 0.0649,-0.05344 0.10774,-0.0339 0.01,-0.0097 0.0168,-0.01676 0.0255,-0.02558 0.0142,0 0.0355,-0.0067 0.0447,0.0012 0.0304,0.02545 0.0566,0.0031 0.0791,-0.0067 0.0478,-0.02075 0.0934,-0.0473 0.13712,-0.07589 0.0332,-0.02172 0.068,-0.03957 0.10434,-0.05381 0.0345,-0.01363 0.0661,-0.03692 0.10603,-0.03523 0.004,1.21e-4 0.009,-0.0071 0.0142,-0.01178 0.0661,0.03451 0.13712,0.05695 0.20499,0.08687 0.0431,0.01918 0.0864,0.04258 0.11469,0.08144 0.0383,0.0091 0.0766,0.01363 0.11115,0.02762 0.0349,0.01424 0.0713,0.02413 0.1066,0.03209 0.0351,0.0078 0.0662,0.03016 0.10405,0.0269 0.0128,-0.0011 0.0263,0.0079 0.0363,0.0132 0.0457,0.02352 0.0945,0.03511 0.14358,0.04596 0.0114,0.0026 0.0246,0.0095 0.0298,0.01405 0.0297,0.02642 0.0664,0.03499 0.10192,0.04596 0.0153,0.0047 0.0202,0.01882 0.0321,0.02461 0.0372,0.01773 0.0693,0.0444 0.11214,0.05598 0.0142,-0.01178 0.0307,-0.01008 0.0534,0 0.1083,0.04899 0.21657,0.09846 0.32117,0.154676 0.0808,0.04331 0.16083,0.08929 0.23599,0.141524 0.0281,0.01955 0.0561,0.04427 0.0801,0.07215 0.0213,0.02461 0.0527,0.04258 0.0829,0.05658 0.0385,0.01798 0.0802,0.02896 0.12066,0.04307 0.0403,0.01405 0.0823,0.02462 0.12066,0.04295 0.061,0.0292 0.12179,0.05827 0.17398,0.104731 0.0466,0.04151 0.0908,0.08578 0.12861,0.13356 0.0711,0.09012 0.15094,0.171567 0.23165,0.252523 0.0686,0.06865 0.16903,0.126804 0.27822,0.171565 0.0822,0.03366 0.15781,0.07891 0.22647,0.137791 0.0728,0.06261 0.15431,0.115107 0.24057,0.159259 0.0114,0.0058 0.0246,-0.004 0.0331,0.0078 -0.0457,0.01107 -0.10419,0.0057 -0.1472,-9.65e-4 -0.0398,-0.0061 -0.0768,-0.01955 -0.11342,-0.03258 -0.0355,-0.01263 -0.0738,-0.01107 -0.10817,-0.03004 -0.0168,-0.0092 -0.043,0.0054 -0.0606,-0.0132 -0.0478,0.0051 -0.0768,-0.02944 -0.11044,-0.05309 -0.0531,-0.0374 -0.10561,-0.07565 -0.15672,-0.115703 -0.0545,-0.04283 -0.11626,-0.07843 -0.15081,-0.142608 -10e-4,-0.0034 -0.006,-0.0058 -0.009,-0.0085 -0.0774,-0.07154 -0.13769,-0.159501 -0.2173,-0.228874 -0.0358,-0.03124 -0.072,-0.06202 -0.11668,-0.08156 -0.028,-0.01221 -0.0575,-0.01652 -0.086,-0.02497 -0.0627,-0.0187 -0.11853,-0.05344 -0.17676,-0.08181 -0.0646,-0.03137 -0.12321,-0.07347 -0.18024,-0.117634 -0.0573,-0.04427 -0.11669,-0.08591 -0.17591,-0.127641 -0.015,-0.01065 -0.0321,-0.02207 -0.0495,-0.02497 -0.0554,-0.0091 -0.0886,-0.05092 -0.1286,-0.08216 -0.0213,-0.01652 -0.0399,-0.03607 -0.0629,-0.05164 -0.0417,-0.02835 -0.088,-0.04247 -0.13599,-0.04947 -0.0229,-0.0033 -0.0429,-0.0199 -0.0671,-0.01334 -0.004,-0.0014 -0.009,-0.01178 -0.0128,0 0.039,0.04645 0.0827,0.08736 0.12988,0.126321 0.0754,0.06237 0.1548,0.118117 0.23515,0.173497 0.0222,0.0152 0.0474,0.02231 0.0688,0.0374 0.003,0.01079 7.2e-4,0.01676 -0.0128,0.01207 -0.038,0.0021 -0.0679,-0.02099 -0.10007,-0.03486 -0.0874,-0.03764 -0.17325,-0.07926 -0.25179,-0.133929 -0.0221,-0.01532 -0.0431,-0.03185 -0.0643,-0.0485 -0.0752,-0.05912 -0.14039,-0.128735 -0.20812,-0.195695 -0.022,-0.02172 -0.0439,-0.03933 -0.0774,-0.04693 -0.0311,-0.007 -0.0606,-0.02654 -0.0918,-0.03921 -0.0808,-0.03282 -0.15925,-0.07106 -0.23961,-0.105213 -0.0823,-0.03499 -0.16119,-0.07674 -0.24045,-0.117748 -0.0184,-0.0095 -0.0366,-0.01823 -0.0535,-0.03089 -0.0552,-0.04126 -0.11639,-0.06575 -0.18858,-0.05092 -0.004,0.0047 -0.01,0.01036 -0.0148,0.01556 -10e-4,0.02473 0.01,0.04524 0.0189,0.06527 0.0248,0.0584 0.0203,0.114496 -0.003,0.171203 -10e-4,0.0053 -10e-4,0.01164 -0.004,0.01628 -0.0284,0.04778 -0.0261,0.100259 -0.0227,0.156362 0.009,0.02558 0.0314,0.04403 0.0518,0.06467 0.0464,0.04669 0.0933,0.09315 0.13926,0.139111 -0.01,0.02062 -0.0297,0.01713 -0.0477,0.02232 8.4e-4,0.04633 0.007,0.09374 -0.026,0.130551 0.009,0.01507 0.0197,0.0087 0.0315,0.01093 0.0128,-0.01249 0.0261,-0.02606 0.0387,-0.03861 0.0206,0.006 0.0325,0.01955 0.0389,0.03197 0.039,0.0754 0.0853,0.147557 0.11087,0.23551 -0.0249,-0.0021 -0.042,-0.01249 -0.0566,-0.02642 -0.0434,-0.04114 -0.0935,-0.07312 -0.1437,-0.10642 h -0.0592 c -0.0182,0.0077 -0.0162,0.03016 -0.0297,0.0409 -0.0142,0.0672 0.0351,0.101835 0.0757,0.136102 0.0493,0.04138 0.10575,0.07408 0.15782,0.112083 0.0261,0.01906 0.053,0.03921 0.0806,0.0532 0.0486,0.02449 0.0711,0.0666 0.0803,0.111246 0.0128,0.06491 0.0298,0.129217 0.0403,0.194972 0.01,0.05792 0.0261,0.116427 0.0529,0.170117 0.006,0.01207 0.006,0.02172 0.001,0.03499 -0.007,4.78e-4 -0.0148,0.0011 -0.0238,0.0017 -0.0351,-0.02449 -0.0564,-0.06226 -0.0809,-0.09628 -0.0639,-0.08832 -0.12562,-0.178322 -0.20859,-0.250591 -0.0304,-0.02642 -0.065,-0.04789 -0.0977,-0.07071 -0.0527,-0.03668 -0.0925,-0.08301 -0.12676,-0.134639 -0.01,-0.01472 -0.0224,-0.02413 -0.0308,-0.03896 -0.007,0.0067 -0.0113,0.01093 -0.0192,0.01918 0.006,0.04403 -0.006,0.09157 0.0114,0.140672 0.01,0.03052 10e-4,0.0672 10e-4,0.101466 -0.0155,-0.0021 -0.0193,-0.01079 -0.0253,-0.02365 -0.0173,-0.03703 -0.0361,-0.07288 -0.0505,-0.111601 -0.0142,-0.03789 -0.0447,-0.0695 -0.066,-0.105085 -0.0216,-0.03608 -0.0515,-0.0643 -0.0816,-0.09254 -0.0518,-0.04875 -0.0967,-0.104603 -0.15612,-0.145866 -0.04,-0.02775 -0.0659,-0.07034 -0.0914,-0.118968 0.0114,-0.04537 -0.004,-0.09556 -0.0128,-0.14466 -0.01,-0.05405 -0.0341,-0.105809 -0.0541,-0.157811 -0.0142,-0.03535 -0.0251,-0.06985 -0.0302,-0.108464 -0.009,-0.06165 -0.0291,-0.119082 -0.075,-0.167706 -0.0527,-0.05598 -0.11768,-0.09278 -0.18219,-0.129459 -0.0422,-0.02389 -0.0825,-0.04754 -0.1164,-0.08229 -0.0406,-0.04162 -0.0826,-0.08205 -0.1235,-0.123667 -0.0667,-0.06805 -0.1455,-0.123425 -0.20775,-0.196058 -0.01,-0.0115 -0.0206,-0.0097 -0.0334,-0.01008 -0.018,0.03354 -0.0389,0.0666 -0.0544,0.101948 -0.0261,0.05936 -0.064,0.105809 -0.11824,0.143575 -0.0578,0.0403 -0.0937,0.09773 -0.0881,0.173497 7.2e-4,0.0094 0.006,0.01391 0.0113,0.01955 q -0.02,0.03403 -0.0776,0.05574 c -0.0163,0.02799 -0.0351,0.0561 -0.0497,0.08615 -0.0366,0.07529 -0.0589,0.156243 -0.0867,0.234907 -0.0113,0.03028 -10e-4,0.06757 -10e-4,0.101707 v 0.05092 c -0.007,0.0079 -0.0128,0.01391 -0.0182,0.02027 -0.0346,-0.03451 -0.039,-0.08181 -0.0525,-0.123666 -0.0143,-0.04416 -0.0216,-0.09085 -0.036,-0.135605 -0.009,-0.02473 0.006,-0.05513 -0.0216,-0.07384 -0.10263,0.126562 -0.20824,0.256625 -0.31368,0.386685 0.0294,0.06902 0.0637,0.138628 0.0569,0.219706 -0.003,0.02786 10e-4,0.05634 -7.1e-4,0.08422 -0.007,0.07867 -0.0352,0.147435 -0.0953,0.201607 -0.009,0.0082 -0.0247,0.0024 -0.0294,0.01677 -0.0483,0.0084 -0.0863,-0.01306 -0.11881,-0.04416 -0.0522,-0.04982 -0.10519,-0.09954 -0.15261,-0.153828 -0.0261,-0.02992 -0.0517,-0.06141 -0.0751,-0.09435 -0.0275,-0.03872 -0.0667,-0.06913 -0.10107,-0.103396 h -0.0816 c -0.0941,0.05151 -0.17809,0.114014 -0.2582,0.182424 -0.0633,0.05405 -0.12718,0.107626 -0.19401,0.157209 -0.0752,0.05574 -0.15046,0.111714 -0.22441,0.168669 -0.0608,0.04682 -0.12776,0.08192 -0.19027,0.124745 -0.0287,0.01966 -0.0654,0.02135 -0.10079,0.01628 -0.006,-0.0057 -0.0113,-0.01136 -0.0166,-0.01665 -0.007,-0.06153 0.023,-0.120288 0.009,-0.183751 -0.0539,-0.01882 -0.0995,0.01235 -0.14038,0.03921 -0.0831,0.05465 -0.1636,0.113162 -0.24142,0.175787 -0.0476,0.03824 -0.0961,0.07637 -0.14406,0.114256 -0.0241,0.01906 -0.0542,0.0068 -0.0732,0.02848 -0.0683,0.007 -0.13215,0.03776 -0.20197,0.03607 -0.022,0.02087 -0.0535,0.0034 -0.0767,0.01869 -0.0238,0.0158 -0.0548,-0.0075 -0.0784,0.01605 -0.006,0.006 -0.023,0.0014 -0.0349,0.0014 -0.0578,0 -0.11555,0 -0.18714,0 0.0517,-0.02328 0.0724,-0.06744 0.11782,-0.07613 0.0562,-0.045 0.12307,-0.07336 0.18182,-0.11498 0.0233,-0.01652 0.0425,-0.03765 0.0674,-0.0532 0.0481,-0.03004 0.0967,-0.05767 0.15057,-0.0736 0.0263,-0.0077 0.0498,-0.02099 0.069,-0.0362 0.0405,-0.03221 0.085,-0.0584 0.13102,-0.07757 0.0619,-0.02582 0.10107,-0.07046 0.13798,-0.121864 0.0253,-0.0351 0.0431,-0.07819 0.0883,-0.09471 0.007,-0.0027 0.0155,-0.0018 0.0271,-0.0028 0.0504,-0.06406 0.12847,-0.09616 0.19546,-0.143575 0.0288,-0.02038 0.066,-0.03065 0.0792,-0.06998 0.003,-0.01022 0.0149,-0.02014 0.0251,-0.0251 0.0165,-0.0081 0.0351,-0.01192 0.0528,-0.01773 -10e-4,-0.02883 0.0261,-0.0222 0.0403,-0.03137 0.0721,-0.04669 0.15442,-0.07481 0.22669,-0.121254 0.0212,-0.01349 0.0396,-0.03124 0.0585,-0.04789 0.0317,-0.02799 0.0737,-0.03583 0.10831,-0.05912 0.0471,-0.03185 0.0967,-0.06033 0.14238,-0.09725 h 0.0332 c 0.01,-0.0084 0.0169,-0.01967 0.0273,-0.02352 0.0426,-0.01569 0.073,-0.04802 0.10774,-0.07444 0.0183,-0.01405 0.0343,-0.03366 0.0551,-0.04151 0.0673,-0.02558 0.12123,-0.07396 0.18604,-0.103524 0.0659,-0.03004 0.1218,-0.07601 0.18025,-0.118003 0.0331,-0.02376 0.0697,-0.04476 0.10774,-0.05924 0.0493,-0.01882 0.0889,-0.05019 0.12861,-0.08216 0.0329,-0.02642 0.0739,-0.04186 0.0996,-0.07601 h 0.0478 c 0.0974,-0.06009 0.19341,-0.119323 0.29126,-0.179649 h 0.0463 c 0.0192,-0.02003 0.0385,-0.0403 0.0588,-0.06153 0.0436,0.0077 0.0777,-0.01263 0.11129,-0.03583 0.0214,-0.01483 0.0439,-0.03185 0.0697,-0.03451 0.0258,-0.0027 0.0412,-0.02907 0.068,-0.02521 z"
       id="path3"
       style="fill:#e8fdff;fill-opacity:1" /></g></svg>
