<?xml version="1.0" encoding="UTF-8" standalone="no"?>
<!-- Created with Inkscape (http://www.inkscape.org/) -->

<svg
   width="9.1322527mm"
   height="6.8916049mm"
   viewBox="0 0 9.1322527 6.8916049"
   version="1.1"
   id="svg1"
   inkscape:version="1.4.2 (f4327f4, 2025-05-13)"
   sodipodi:docname="heart-unfilled.svg"
   xmlns:inkscape="http://www.inkscape.org/namespaces/inkscape"
   xmlns:sodipodi="http://sodipodi.sourceforge.net/DTD/sodipodi-0.dtd"
   xmlns="http://www.w3.org/2000/svg"
   xmlns:svg="http://www.w3.org/2000/svg">
  <sodipodi:namedview
     id="namedview1"
     pagecolor="#ffffff"
     bordercolor="#000000"
     borderopacity="0.25"
     inkscape:showpageshadow="2"
     inkscape:pageopacity="0.0"
     inkscape:pagecheckerboard="0"
     inkscape:deskcolor="#d1d1d1"
     inkscape:document-units="mm"
     inkscape:zoom="5.8599353"
     inkscape:cx="9.7270698"
     inkscape:cy="4.436909"
     inkscape:window-width="1920"
     inkscape:window-height="1171"
     inkscape:window-x="896"
     inkscape:window-y="-9"
     inkscape:window-maximized="1"
     inkscape:current-layer="layer1" />
  <defs
     id="defs1" />
  <g
     inkscape:label="Layer 1"
     inkscape:groupmode="layer"
     id="layer1"
     transform="translate(-45.187908,-138.71037)">
    <path
       d="m 47.487508,138.74344 a 2.2665206,2.0342965 0 0 0 -2.266527,2.03428 2.2665206,2.0342965 0 0 0 0.137984,0.69901 2.2665206,2.0342965 0 0 0 0.292654,0.49397 l 0.549431,0.48193 3.552984,3.11627 3.55292,-3.11632 0.549561,-0.482 a 2.2665206,2.0342965 0 0 0 0.292589,-0.49385 2.2665206,2.0342965 0 0 0 0.137984,-0.69901 2.2665206,2.0342965 0 0 0 -2.266527,-2.03428 2.2665206,2.0342965 0 0 0 -0.827581,0.14047 h -6.4e-5 a 2.2665206,2.0342965 0 0 0 -1.438882,1.89381 2.2665206,2.0342965 0 0 0 -1.438945,-1.89381 2.2665206,2.0342965 0 0 0 -0.827581,-0.14047 z"
       style="font-variation-settings:'wght' 700;fill:#f5f5f5;stroke:#000000;stroke-width:0.0661458;stroke-linejoin:round;stroke-dasharray:none;paint-order:fill markers stroke"
       id="path2" />
  </g>
</svg>
