<?xml version="1.0" encoding="UTF-8" standalone="no"?>
<!-- Created with Inkscape (http://www.inkscape.org/) -->

<svg
   width="334.53339mm"
   height="179.75963mm"
   viewBox="0 0 334.53339 179.75963"
   version="1.1"
   id="svg1"
   xml:space="preserve"
   sodipodi:docname="RD-logo.svg"
   inkscape:version="1.4.2 (f4327f4, 2025-05-13)"
   xmlns:inkscape="http://www.inkscape.org/namespaces/inkscape"
   xmlns:sodipodi="http://sodipodi.sourceforge.net/DTD/sodipodi-0.dtd"
   xmlns="http://www.w3.org/2000/svg"
   xmlns:svg="http://www.w3.org/2000/svg"><sodipodi:namedview
     id="namedview1"
     pagecolor="#ffffff"
     bordercolor="#000000"
     borderopacity="0.25"
     inkscape:showpageshadow="2"
     inkscape:pageopacity="0.0"
     inkscape:pagecheckerboard="0"
     inkscape:deskcolor="#d1d1d1"
     inkscape:document-units="mm"
     inkscape:zoom="0.64423746"
     inkscape:cx="626.32185"
     inkscape:cy="352.35455"
     inkscape:window-width="3440"
     inkscape:window-height="1417"
     inkscape:window-x="1912"
     inkscape:window-y="-8"
     inkscape:window-maximized="1"
     inkscape:current-layer="svg1" /><defs
     id="defs1"><style
       id="style1">
      .cls-1 {
        fill: #0c3641;
      }

      .cls-1, .cls-2, .cls-3, .cls-4, .cls-5 {
        stroke-width: 0px;
      }

      .cls-2 {
        fill: #737d86;
      }

      .cls-3 {
        fill: #445660;
      }

      .cls-4 {
        fill: #0b3641;
      }

      .cls-5 {
        fill: #0e3742;
      }
    </style></defs><g
     id="layer1"
     transform="translate(25.081691,-80.388575)"
     style="fill:#0a3641"><path
       d="m 8.6684737,241.27985 c 0,0 2.4455503,4.26208 5.2560103,7.28018 -5.2227203,5.56226 -6.8479003,7.98001 -6.8481603,7.98039 4.3e-4,-2e-4 3.1266403,-1.47568 8.2113803,-6.57376 5.07668,5.08702 8.19701,6.55961 8.19744,6.55981 -2.6e-4,-3.9e-4 -1.62267,-2.41387 -6.83525,-7.96644 2.80509,-3.01727 5.2431,-7.26622 5.2431,-7.26622 0,0 -3.76807,2.99562 -6.60529,5.84305 -2.83876,-2.85151 -6.6192303,-5.85701 -6.6192303,-5.85701 z"
       style="opacity:1;fill:#0a3641;fill-opacity:1;stroke:none;stroke-width:0.265;stroke-linecap:square;stroke-linejoin:round;paint-order:stroke fill markers"
       id="path75-2" /><path
       class="cls-4"
       d="m 126.68537,80.392723 h 1.05643 c 1.29942,0.81698 2.81363,1.13039 4.21517,1.70438 1.82763,0.74655 3.57778,1.6093 5.20821,2.6763 0.83106,0.5423 1.69029,1.05291 2.53544,1.55295 0.69724,0.41553 1.13742,1.067 1.81354,1.5107 0.79937,0.52117 1.71494,0.71837 2.4967,1.2325 1.1656,0.76768 2.09526,1.78185 3.07774,2.74673 0.40144,0.3944 0.77472,0.78528 1.33815,1.01417 0.92261,0.3768 1.81002,0.85219 2.33471,1.59874 1.36984,0.20424 1.89454,-1.56 3.14465,-0.98953 0.28171,-0.28171 0.48948,-0.48948 0.74654,-0.74654 0.41201,0 1.03531,-0.19368 1.30646,0.0352 0.8874,0.74303 1.65156,0.0916 2.31006,-0.19368 1.3945,-0.60569 2.7256,-1.3804 4.00036,-2.21498 0.9684,-0.63386 1.98609,-1.15504 3.04605,-1.57057 1.00713,-0.39792 1.92975,-1.07756 3.09534,-1.02826 0.12325,0.004 0.25355,-0.20776 0.40849,-0.3451 1.92975,1.00713 4.00388,1.66212 5.98293,2.53544 1.26068,0.55991 2.52135,1.24307 3.34889,2.37697 1.11982,0.26411 2.23964,0.39792 3.24325,0.80641 1.01769,0.41553 2.08117,0.70429 3.11295,0.9367 1.02122,0.2289 1.92975,0.88037 3.03548,0.78529 0.37328,-0.0317 0.76768,0.23241 1.05996,0.38383 1.33462,0.68668 2.75728,1.02474 4.19051,1.34167 0.34158,0.0739 0.71838,0.2782 0.8698,0.41201 0.86627,0.7712 1.94031,1.02122 2.97561,1.34167 0.44723,0.13734 0.58809,0.54934 0.93671,0.71837 1.0846,0.51766 2.02131,1.295887 3.27494,1.633947 0.40849,-0.3451 0.89444,-0.2958 1.55647,0 3.16226,1.42971 6.32099,2.8735 9.37408,4.51449 2.35937,1.2642 4.69408,2.60587 6.88794,4.13065 0.82049,0.57047 1.63747,1.29237 2.33824,2.10582 0.61977,0.71838 1.53887,1.24307 2.41923,1.65156 1.12334,0.52469 2.34175,0.84514 3.52144,1.25715 1.17616,0.40849 2.40514,0.71838 3.52144,1.25363 1.78185,0.85219 3.55665,1.70086 5.07792,3.05662 1.35927,1.21137 2.65164,2.50374 3.75385,3.89823 2.07765,2.63052 4.40532,5.00749 6.76117,7.37038 2.00018,2.0037 4.93354,3.70103 8.12044,5.00749 2.3981,0.98248 4.60605,2.30302 6.60974,4.02148 2.12696,1.82763 4.50393,3.35946 7.02176,4.6483 0.33101,0.16903 0.71485,-0.1162 0.96487,0.2289 -1.33462,0.32397 -3.04252,0.1655 -4.29615,-0.0282 -1.15856,-0.17959 -2.24316,-0.57047 -3.31016,-0.95078 -1.0353,-0.36976 -2.15512,-0.32398 -3.15521,-0.87684 -0.48948,-0.27115 -1.25715,0.15846 -1.76776,-0.38736 -1.39449,0.1479 -2.23964,-0.85923 -3.22212,-1.54944 -1.54944,-1.09164 -3.08478,-2.20794 -4.57435,-3.37706 -1.5917,-1.25011 -3.39467,-2.28893 -4.40181,-4.16234 -0.0528,-0.0986 -0.15846,-0.16903 -0.2465,-0.25002 -2.25724,-2.08822 -4.01796,-4.65535 -6.34211,-6.68018 -1.04587,-0.91205 -2.1023,-1.81002 -3.40523,-2.38049 -0.81698,-0.35567 -1.67621,-0.48244 -2.51079,-0.72894 -1.83115,-0.54582 -3.45806,-1.56 -5.15891,-2.38754 -1.88397,-0.91557 -3.59539,-2.14455 -5.26104,-3.4334 -1.67268,-1.29237 -3.40523,-2.50727 -5.13426,-3.72568 -0.44018,-0.30989 -0.9367,-0.64443 -1.44731,-0.72894 -1.61634,-0.26411 -2.58474,-1.48605 -3.75385,-2.3981 -0.6233,-0.48244 -1.16208,-1.05292 -1.83468,-1.50718 -1.21841,-0.82754 -2.57065,-1.23955 -3.96866,-1.44379 -0.66555,-0.0951 -1.25011,-0.58104 -1.96144,-0.39088 -0.11621,-0.0423 -0.23594,-0.3451 -0.35215,0 1.14095,1.35575 2.41571,2.54952 3.7926,3.68695 2.2009,1.82058 4.518,3.44749 6.86328,5.06383 0.64443,0.4437 1.38393,0.65147 2.01075,1.09165 0.081,0.3134 0.0211,0.48948 -0.35215,0.35214 -1.10925,0.0634 -1.98257,-0.61273 -2.91927,-1.0177 -2.55305,-1.09869 -5.05679,-2.31358 -7.34925,-3.9088 -0.64442,-0.44722 -1.26067,-0.92966 -1.87693,-1.41562 -2.19385,-1.7255 -4.09895,-3.75737 -6.07448,-5.71177 -0.6409,-0.63386 -1.27829,-1.14799 -2.25725,-1.36984 -0.90853,-0.20425 -1.77128,-0.77472 -2.67981,-1.14447 -2.35585,-0.95783 -4.6483,-2.074127 -6.99358,-3.070697 -2.40163,-1.02122 -4.70465,-2.23963 -7.01824,-3.43692 -0.53878,-0.2782 -1.06699,-0.53174 -1.56352,-0.90149 -1.61282,-1.20434 -3.39819,-1.91919 -5.50401,-1.48605 -0.13029,0.13734 -0.28876,0.30284 -0.43313,0.45426 -0.0564,0.7219 0.29932,1.32055 0.54934,1.9051 0.72542,1.70438 0.5916,3.34185 -0.0845,4.996927 -0.0599,0.15142 -0.0423,0.34158 -0.12325,0.47539 -0.82754,1.39449 -0.76416,2.92632 -0.66204,4.56379 0.23594,0.74655 0.91558,1.28533 1.51422,1.88749 1.35576,1.3628 2.72208,2.71856 4.06375,4.06022 -0.2782,0.60217 -0.86628,0.50005 -1.39449,0.65147 0.0246,1.35223 0.19368,2.73616 -0.75711,3.8102 0.25002,0.44018 0.57399,0.25354 0.91909,0.32045 0.36623,-0.36623 0.76415,-0.76063 1.13038,-1.12686 0.60217,0.17255 0.94727,0.57047 1.13743,0.93318 1.14095,2.2009 2.48966,4.30672 3.2362,6.87385 -0.72541,-0.0634 -1.22546,-0.36623 -1.65507,-0.77119 -1.26772,-1.20081 -2.72912,-2.13399 -4.19404,-3.10591 h -1.7255 c -0.53174,0.22537 -0.47188,0.88036 -0.86628,1.19377 -0.40849,1.96144 1.02122,2.97209 2.20794,3.97218 1.43675,1.20786 3.08479,2.16217 4.60605,3.27142 0.76415,0.55639 1.54591,1.14447 2.35232,1.55296 1.41562,0.71485 2.07765,1.94383 2.34528,3.24676 0.38736,1.89454 0.8698,3.77147 1.17616,5.69065 0.27115,1.69029 0.76063,3.39819 1.54591,4.96523 0.17608,0.35215 0.15495,0.63386 0.0599,1.02122 -0.20777,0.0141 -0.42962,0.0317 -0.69725,0.0493 -1.02474,-0.71485 -1.64451,-1.81706 -2.36288,-2.81011 -1.86285,-2.57769 -3.66582,-5.20469 -6.08857,-7.31403 -0.88741,-0.7712 -1.89806,-1.39801 -2.85237,-2.06356 -1.53887,-1.07052 -2.70095,-2.42276 -3.70104,-3.92993 -0.28523,-0.42962 -0.65498,-0.70429 -0.89796,-1.13743 -0.19368,0.19368 -0.32045,0.32045 -0.55991,0.55991 0.16903,1.28533 -0.16903,2.67278 0.31341,4.106 0.29932,0.89093 0.0563,1.96144 0.0563,2.96153 -0.45075,-0.0634 -0.56343,-0.3134 -0.73598,-0.6902 -0.50357,-1.08108 -1.05291,-2.12695 -1.47549,-3.25733 -0.41553,-1.10573 -1.30645,-2.02835 -1.92622,-3.06718 -0.63034,-1.05291 -1.50366,-1.87692 -2.3805,-2.70094 -1.51422,-1.42266 -2.82067,-3.05309 -4.55674,-4.25742 -1.16912,-0.80994 -1.92271,-2.053 -2.66925,-3.47214 0.33805,-1.32407 -0.11973,-2.78899 -0.38384,-4.22221 -0.29228,-1.57761 -0.99305,-3.08831 -1.57761,-4.60605 -0.39792,-1.03178 -0.73246,-2.03891 -0.88036,-3.16577 -0.23593,-1.79946 -0.84866,-3.47566 -2.18681,-4.89481 -1.53887,-1.633937 -3.43341,-2.707977 -5.31738,-3.778497 -1.22898,-0.69725 -2.40866,-1.38745 -3.39819,-2.40162 -1.18672,-1.2149 -2.41219,-2.39458 -3.60243,-3.60948 -1.94736,-1.98609 -4.24686,-3.60244 -6.06392,-5.72234 -0.28524,-0.33454 -0.60217,-0.28172 -0.97544,-0.2958 -0.52822,0.97896 -1.13391,1.94383 -1.58817,2.97561 -0.76416,1.73255 -1.86989,3.08831 -3.45101,4.19052 -1.68678,1.17616 -2.73616,2.85237 -2.57418,5.06383 0.0211,0.27467 0.17607,0.40497 0.33102,0.57047 q -0.58456,0.99305 -2.26781,1.62691 c -0.4754,0.81697 -1.02122,1.637467 -1.45083,2.514307 -1.07052,2.19738 -1.71847,4.56026 -2.53192,6.85624 -0.31341,0.88389 -0.0528,1.97201 -0.0528,2.96858 v 1.48605 c -0.21129,0.23241 -0.36623,0.40496 -0.53174,0.5916 -1.01065,-1.00713 -1.13743,-2.38754 -1.53183,-3.60948 -0.41905,-1.28885 -0.63033,-2.65164 -1.05291,-3.9581 -0.23241,-0.72189 0.17255,-1.6093 -0.63034,-2.15512 -2.99674,3.69399 -6.078,7.49011 -9.15574,11.28622 0.85923,2.01426 1.85932,4.04613 1.66212,6.41254 -0.0669,0.81346 0.0458,1.64452 -0.0211,2.45797 -0.19368,2.29598 -1.02826,4.3032 -2.77842,5.88433 -0.26763,0.23945 -0.72189,0.0704 -0.85923,0.48948 -1.40857,0.2465 -2.517833,-0.38032 -3.468623,-1.28885 -1.52478,-1.45436 -3.07069,-2.90519 -4.45462,-4.48984 -0.76415,-0.87332 -1.50718,-1.79241 -2.19034,-2.75377 -0.80289,-1.13038 -1.947354,-2.01778 -2.950964,-3.01787 h -2.380494 c -2.746724,1.50366 -5.197647,3.32776 -7.535884,5.32442 -1.848756,1.5776 -3.711599,3.14112 -5.662477,4.58844 -2.193857,1.6269 -4.391237,3.26085 -6.54988,4.92297 -1.774806,1.36632 -3.729206,2.39106 -5.553312,3.64117 -0.838103,0.574 -1.908621,0.6233 -2.940403,0.4754 -0.165508,-0.16551 -0.331016,-0.33102 -0.485959,-0.48596 -0.214808,-1.79594 0.672595,-3.51088 0.260586,-5.36316 -1.574084,-0.54934 -2.905188,0.35919 -4.095435,1.14447 -2.422752,1.59521 -4.775074,3.30311 -7.046404,5.13074 -1.387447,1.1163 -2.803066,2.22907 -4.2046,3.3348 -0.704288,0.55639 -1.584648,0.1972 -2.137515,0.83106 -1.993135,0.20425 -3.859499,1.10221 -5.894892,1.05291 -0.640902,0.60921 -1.563519,0.0986 -2.236115,0.54583 -0.693723,0.46131 -1.598734,-0.21833 -2.285415,0.46835 -0.176072,0.17607 -0.672595,0.0423 -1.021218,0.0423 -1.68677,0 -3.37354,0 -5.461754,0 1.507176,-0.67964 2.112864,-1.96849 3.440447,-2.22203 1.640992,-1.3135 3.59187,-2.14104 5.306812,-3.35594 0.679638,-0.48243 1.239547,-1.09868 1.968485,-1.55295 1.405055,-0.87684 2.820674,-1.68325 4.394758,-2.14808 0.764153,-0.22537 1.454356,-0.61273 2.014265,-1.05643 1.179682,-0.94023 2.482615,-1.70438 3.824284,-2.26429 1.8065,-0.75359 2.950968,-2.05652 4.028529,-3.55665 0.735981,-1.02474 1.260676,-2.2819 2.577695,-2.76433 0.207765,-0.0775 0.450744,-0.0528 0.792324,-0.0845 1.471962,-1.86988 3.750334,-2.80659 5.704734,-4.19051 0.841624,-0.59513 1.926228,-0.89445 2.310065,-2.04244 0.0986,-0.29932 0.433137,-0.58808 0.73246,-0.73246 0.482437,-0.23594 1.024739,-0.34862 1.542391,-0.51765 -0.03169,-0.84163 0.764153,-0.64795 1.176161,-0.91558 2.105822,-1.36279 4.507445,-2.18329 6.616788,-3.53904 0.616252,-0.39441 1.155032,-0.91206 1.707899,-1.39802 0.922617,-0.81697 2.1516,-1.04586 3.162254,-1.7255 1.376883,-0.92966 2.820674,-1.76072 4.1553,-2.83828 h 0.968396 c 0.274672,-0.24298 0.493002,-0.574 0.795846,-0.68668 1.243068,-0.45779 2.130471,-1.40154 3.144646,-2.17273 0.535259,-0.40849 1.003611,-0.98249 1.605777,-1.21138 1.964965,-0.74654 3.539049,-2.15864 5.430059,-3.0214 1.92271,-0.876827 3.55666,-2.218497 5.26104,-3.443957 0.96487,-0.69373 2.03539,-1.30646 3.14464,-1.72903 1.436753,-0.54935 2.591783,-1.46492 3.753863,-2.3981 0.96135,-0.7712 2.15864,-1.22194 2.90871,-2.21851 h 1.39801 c 2.8418,-1.75368 5.64487,-3.48271 8.50076,-5.24343 h 1.35223 c 0.55991,-0.58456 1.12334,-1.17616 1.71494,-1.79593 1.27124,0.22185 2.26781,-0.36975 3.24677,-1.04587 0.62682,-0.43314 1.27829,-0.92966 2.0354,-1.00713 0.75358,-0.0775 1.20081,-0.84867 1.98609,-0.73598 z"
       id="path3"
       style="opacity:1;fill:#0a3641;fill-opacity:1" /><path
       class="cls-5"
       d="m 33.914539,250.03375 v 5.6563 h -2.44189 v -15.49229 h 4.94564 c 3.343761,0 5.342854,1.70592 5.342854,4.89542 0,3.18948 -1.976302,4.94057 -5.342854,4.94057 z m 2.25305,-2.24793 c 2.230259,0 3.154921,-0.92071 3.154921,-2.69264 0,-1.77195 -0.924662,-2.62664 -3.154921,-2.62664 h -2.249795 v 5.32276 h 2.249795 z"
       id="path4"
       style="opacity:1;fill:#0a3641;fill-opacity:1" /><path
       class="cls-5"
       d="m 52.667211,255.69692 h -2.207224 v -0.99026 c -0.484354,0.79289 -1.111738,1.18764 -2.584304,1.18764 -2.164965,0 -3.845576,-1.16722 -3.845576,-4.33199 v -6.86037 h 2.246232 v 6.61877 c 0,1.9567 0.83868,2.50798 2.015432,2.50798 1.388049,0 2.142211,-0.96644 2.142211,-2.48416 v -6.64259 h 2.226728 v 10.99498 z"
       id="path5"
       style="opacity:1;fill:#0a3641;fill-opacity:1" /><path
       class="cls-5"
       d="m 62.017563,247.82109 c -0.545823,-0.67384 -1.41101,-1.16463 -2.773808,-1.16463 -1.024739,0 -1.774806,0.32681 -1.774806,1.11183 0,0.91305 0.841624,1.19606 2.162165,1.35105 2.524873,0.28301 4.165864,1.13206 4.165864,3.43995 0,2.00468 -1.433226,3.30856 -4.370108,3.30856 -2.32063,0 -4.027983,-0.94137 -4.961165,-2.13744 l 1.657518,-1.28188 c 0.524695,0.67384 1.775342,1.37421 3.278997,1.37421 1.250111,0 1.97905,-0.43462 1.97905,-1.19606 0,-0.89284 -0.591602,-1.15227 -2.366409,-1.37127 -2.162164,-0.2628 -3.982749,-1.13205 -3.982749,-3.41974 0,-1.93729 1.479005,-3.24454 4.2539,-3.24454 1.866364,0 3.345369,0.45822 4.232772,1.8059 z"
       id="path6"
       style="opacity:1;fill:#0a3641;fill-opacity:1" /><path
       class="cls-5"
       d="m 66.052573,240.34763 h 2.199372 v 5.18187 c 0.432872,-0.66752 1.171302,-1.15612 2.508114,-1.15612 2.1198,0 3.743071,1.15612 3.743071,4.35951 v 6.96076 h -2.180276 v -6.69238 c 0,-1.95782 -0.821184,-2.51179 -1.954291,-2.51179 -1.359091,0 -2.1198,1.00128 -2.1198,2.49115 v 6.71647 h -2.199374 v -15.34259 z"
       id="path7"
       style="opacity:1;fill:#0a3641;fill-opacity:1" /><path
       class="cls-5"
       d="m 77.550703,240.28769 h 2.422422 v 2.43176 h -2.422422 z m 0.102536,4.24178 h 2.214145 v 11.16058 h -2.214145 z"
       id="path8"
       style="opacity:1;fill:#0a3641;fill-opacity:1" /><path
       class="cls-5"
       d="m 82.827178,244.69507 h 2.176504 v 0.99028 c 0.455175,-0.66019 1.202045,-1.18766 2.567569,-1.18766 2.134833,0 3.769616,1.14342 3.769616,4.31165 v 6.88435 H 89.14513 v -6.61891 c 0,-1.93633 -0.827008,-2.48422 -1.96815,-2.48422 -1.368729,0 -2.134833,0.99028 -2.134833,2.4638 v 6.64274 h -2.214969 v -10.99523 z"
       id="path9"
       style="opacity:1;fill:#0a3641;fill-opacity:1" /><path
       class="cls-5"
       d="m 100.45876,244.69697 h 2.18787 v 10.87805 c 0,3.41871 -1.81737,4.57318 -4.500313,4.57318 -1.85889,0 -3.01512,-0.51195 -3.83917,-1.93097 l 1.54908,-1.19914 c 0.45355,0.73185 1.09554,1.1098 2.22941,1.1098 1.65128,0 2.373123,-0.7559 2.373123,-2.55287 v -0.51195 c -0.555753,0.62189 -1.383003,0.93112 -2.475333,0.93112 -2.74364,0 -4.10746,-2.10963 -4.10746,-5.0164 v -1.50836 c 0,-3.19882 1.60976,-4.97174 4.10746,-4.97174 1.11469,0 1.91958,0.35389 2.475333,0.97579 z m 0,6.17431 v -1.28846 c 0,-1.91037 -0.721843,-3.02016 -2.187883,-3.02016 -1.46603,0 -2.20704,1.08919 -2.20704,3.02016 v 1.28846 c 0,1.73169 0.61963,3.08543 2.20704,3.08543 1.58742,0 2.187883,-1.35374 2.187883,-3.08543 z"
       id="path10"
       style="opacity:1;fill:#0a3641;fill-opacity:1" /><path
       class="cls-5"
       d="m 109.76837,244.58252 h 1.22138 v -3.01736 h 2.02088 v 3.01736 h 1.81827 v 2.04549 h -1.81827 v 5.08795 c 0,1.28917 0.17112,1.84266 1.23909,1.84266 h 0.48709 v 2.13143 h -0.64051 c -2.28639,0 -3.10655,-0.91102 -3.10655,-3.53062 v -5.53142 h -1.22138 z"
       id="path11"
       style="opacity:1;fill:#0a3641;fill-opacity:1" /><path
       class="cls-5"
       d="m 116.82149,240.22774 h 2.20717 v 5.45678 c 0.43441,-0.67273 1.17545,-1.16515 2.51701,-1.16515 2.12731,0 3.75634,0.93071 3.75634,4.15912 v 7.01513 H 123.114 v -6.45811 c 0,-1.97311 -0.8241,-2.37511 -1.96122,-2.37511 -1.36391,0 -2.12732,0.82675 -2.12732,2.32825 v 6.50845 h -2.20717 v -15.46243 z"
       id="path12"
       style="opacity:1;fill:#0a3641;fill-opacity:1" /><path
       class="cls-5"
       d="m 136.51907,254.05938 c -0.75702,1.31686 -1.96959,1.83492 -3.87554,1.83492 -3.09506,0 -4.73974,-2.00871 -4.73974,-4.87973 v -1.46726 c 0,-3.17517 1.55758,-4.83629 4.39473,-4.83629 2.83714,0 4.37128,1.77142 4.37128,4.96664 v 1.42747 l -6.63728,-0.009 v 0.0891 c 0,1.6845 0.81561,2.72356 2.52392,2.72356 1.27621,0 1.7954,-0.38771 2.23086,-1.0595 z m -6.30067,-4.96663 h 4.13344 c -0.0871,-1.57755 -0.73691,-2.37635 -2.05667,-2.37635 -1.31976,0 -1.96959,0.90575 -2.07677,2.37635 z"
       id="path13"
       style="opacity:1;fill:#0a3641;fill-opacity:1" /><path
       class="cls-5"
       d="m 152.38075,244.85168 c -0.381,-1.8659 -1.314,-2.43427 -2.92669,-2.43427 -1.95099,0 -3.01517,1.33327 -3.01517,4.6424 v 1.95524 c 0,3.26446 1.06089,4.64241 3.01517,4.64241 1.67509,0 2.4948,-0.4401 2.8758,-2.30256 h 2.35498 c -0.48939,3.44315 -2.324,4.54644 -5.23407,4.54644 -3.26807,0 -5.47525,-2.0652 -5.47525,-6.88285 v -1.95524 c 0,-4.81765 2.20718,-6.88284 5.47525,-6.88284 2.90679,0 4.81964,1.34563 5.30904,4.67537 h -2.37798 z"
       id="path14"
       style="opacity:1;fill:#0a3641;fill-opacity:1" /><path
       class="cls-5"
       d="m 164.79176,250.93146 c 0,2.89415 -1.35981,4.96284 -4.43557,4.96284 -3.07576,0 -4.45499,-1.96088 -4.45499,-4.96284 v -1.37126 c 0,-3.20074 1.63177,-4.94262 4.45499,-4.94262 2.82323,0 4.43557,1.74188 4.43557,4.94262 z m -2.21778,-0.064 v -1.26345 c 0,-1.89349 -0.73171,-2.96153 -2.21779,-2.96153 -1.48607,0 -2.23721,1.08825 -2.23721,2.96153 v 1.26345 c 0,1.69807 0.54393,3.02554 2.23721,3.02554 1.58969,0 2.21779,-1.32747 2.21779,-3.02554 z"
       id="path15"
       style="opacity:1;fill:#0a3641;fill-opacity:1" /><path
       class="cls-5"
       d="m 166.99531,244.90118 h 2.39105 v 0.97174 c 0.45427,-0.64782 1.32054,-1.16542 2.66221,-1.16542 1.43323,0 2.57065,0.54097 3.25381,1.55277 0.75007,-0.97174 1.91215,-1.55277 3.32072,-1.55277 2.45797,0 3.93697,1.42254 3.93697,4.23088 v 6.75537 h -2.43331 v -6.49491 c 0,-1.76982 -0.77472,-2.43768 -2.02483,-2.43768 -1.25011,0 -2.07061,0.86154 -2.11639,2.30746 v 6.62513 h -2.41218 v -6.49491 c 0,-1.83327 -0.84163,-2.43768 -2.0037,-2.43768 -1.25011,0 -2.13752,0.90495 -2.13752,2.41764 v 6.5183 h -2.43331 v -10.78924 z"
       id="path16"
       style="opacity:1;fill:#0a3641;fill-opacity:1" /><path
       class="cls-5"
       d="m 186.10598,244.59463 v -0.68682 c 0,-2.62018 0.9352,-3.5302 3.54235,-3.5302 h 0.67282 v 2.12911 h -0.50126 c -1.21779,0 -1.41289,0.55631 -1.41289,1.84065 v 0.24382 h 1.91415 v 2.04326 H 188.407 v 9.0556 h -2.30439 v -9.0556 h -1.39272 v -2.04326 h 1.39272 z"
       id="path17"
       style="opacity:1;fill:#0a3641;fill-opacity:1" /><path
       class="cls-5"
       d="m 199.92575,250.99742 c 0,2.85568 -1.35982,4.89688 -4.43557,4.89688 -3.07576,0 -4.455,-1.93482 -4.455,-4.89688 v -1.35304 c 0,-3.1582 1.63177,-4.87693 4.455,-4.87693 2.82322,0 4.43557,1.71873 4.43557,4.87693 z m -2.21779,-0.0632 v -1.24666 c 0,-1.86833 -0.7317,-2.92217 -2.21778,-2.92217 -1.48608,0 -2.24045,1.07378 -2.24045,2.92217 v 1.24666 c 0,1.6755 0.54392,2.98533 2.24045,2.98533 1.58968,0 2.21778,-1.30983 2.21778,-2.98533 z"
       id="path18"
       style="opacity:1;fill:#0a3641;fill-opacity:1" /><path
       class="cls-5"
       d="m 208.07038,247.50463 c -0.32465,-0.51412 -0.7754,-0.86952 -1.46567,-0.86952 -1.10005,0 -1.87543,0.89022 -1.87543,2.49814 v 6.73531 h -2.17802 v -11.14847 h 2.14019 v 1.00409 c 0.3877,-0.64523 1.07798,-1.20422 2.28204,-1.20422 1.30491,0 2.01299,0.18481 2.64338,1.27516 l -1.54334,1.71295 z"
       id="path19"
       style="opacity:1;fill:#0a3641;fill-opacity:1" /><path
       class="cls-5"
       d="m 209.92871,244.58252 h 1.24225 v -2.99132 h 2.05542 v 2.99132 h 1.61106 v 2.04549 h -1.61106 v 5.08795 c 0,1.28917 0.17403,1.84266 1.26024,1.84266 h 0.35082 v 2.13143 h -0.50684 c -2.32547,0 -3.15964,-0.91102 -3.15964,-3.53062 v -5.53142 h -1.24225 z"
       id="path20"
       style="opacity:1;fill:#0a3641;fill-opacity:1" /><path
       class="cls-5"
       d="m 231.06738,240.13778 v 1.73694 l -6.60509,11.56219 h 6.82291 v 2.25314 h -10.0266 v -1.73695 l 6.60509,-11.54125 h -6.60509 v -2.27755 h 9.80878 z"
       id="path21"
       style="opacity:1;fill:#0a3641;fill-opacity:1" /><path
       class="cls-5"
       d="m 241.48726,250.94465 c 0,2.88645 -1.34146,4.94965 -4.37575,4.94965 -3.03428,0 -4.39491,-1.95566 -4.39491,-4.94965 v -1.36761 c 0,-3.19223 1.60976,-4.92949 4.39491,-4.92949 2.78516,0 4.37575,1.73726 4.37575,4.92949 z m -2.18787,-0.0638 v -1.26009 c 0,-1.88845 -0.72184,-2.95366 -2.18788,-2.95366 -1.46603,0 -2.21023,1.08536 -2.21023,2.95366 v 1.26009 c 0,1.69356 0.53659,3.0175 2.21023,3.0175 1.56825,0 2.18788,-1.32394 2.18788,-3.0175 z"
       id="path22"
       style="opacity:1;fill:#0a3641;fill-opacity:1" /><path
       class="cls-5"
       d="m 244.23307,244.81285 h 2.13053 v 0.97968 c 0.44555,-0.65312 1.17665,-1.17495 2.51333,-1.17495 2.08974,0 3.68999,1.13119 3.68999,4.2655 v 6.81064 h -2.14936 v -6.54805 c 0,-1.9156 -0.80953,-2.45762 -1.92657,-2.45762 -1.33668,0 -2.08974,0.97968 -2.08974,2.43742 v 6.57163 h -2.16818 v -10.87752 z"
       id="path23"
       style="opacity:1;fill:#0a3641;fill-opacity:1" /><path
       class="cls-5"
       d="m 263.75121,254.03971 c -0.75961,1.33098 -1.97632,1.85459 -3.88878,1.85459 -3.10566,0 -4.75595,-2.03025 -4.75595,-4.93205 v -1.48299 c 0,-3.20921 1.56291,-4.88813 4.40975,-4.88813 2.84685,0 4.38623,1.7904 4.38623,5.01988 v 1.19923 h -6.49364 v 0.0439 c 0,1.70257 0.65205,3.03355 2.36622,3.03355 1.28057,0 1.80154,-0.39187 2.23849,-1.07087 z m -6.31886,-5.01988 h 4.14759 c -0.0874,-1.59447 -0.73944,-2.40183 -2.06371,-2.40183 -1.32427,0 -1.97632,0.91547 -2.08388,2.40183 z"
       id="path24"
       style="opacity:1;fill:#0a3641;fill-opacity:1" /><path
       class="cls-4"
       d="m -15.288565,151.1578 c 3.810199,0 9.3423828,-0.22566 12.8567808,4.1147 1.71846321,2.09439 2.76433111,5.23948 2.76433111,9.12854 v 3.96663 c 0,3.36723 -1.1972899,6.51232 -2.76433111,8.30701 -1.1198182,1.27284 -2.6164306,2.17195 -3.961621,2.69378 l 8.2225649,24.17352 h -7.7718204 l -7.2506473,-22.60097 h -4.408844 v 22.60097 h -7.47954 v -52.38771 h 9.789606 z m -2.317108,23.04876 h 4.260944 c 1.644512,0 3.215075,-0.37375 4.6342157,-1.72064 1.4966124,-1.42094 1.5705627,-2.69378 1.5705627,-4.71412 v -3.74098 c 0,-2.02033 -0.7465455,-3.81501 -1.7184632,-4.78816 -1.4930912,-1.49497 -3.2890262,-1.34689 -4.8595882,-1.34689 h -3.887671 v 16.31431 z"
       id="path25"
       style="opacity:1;fill:#0a3641;fill-opacity:1" /><path
       class="cls-4"
       d="M 35.924285,203.54198 33.45374,192.31553 h -9.589248 l -2.470546,11.22645 h -7.492812 l 11.459803,-52.38771 h 6.592828 l 11.459804,52.38771 h -7.492813 z m -7.415166,-37.79052 -3.896405,19.90719 h 7.941041 z"
       id="path26"
       style="opacity:1;fill:#0a3641;fill-opacity:1" /><path
       class="cls-4"
       d="m 65.729226,151.15779 v 52.45386 h -7.476019 v -52.45386 z"
       id="path27"
       style="opacity:1;fill:#0a3641;fill-opacity:1" /><path
       class="cls-4"
       d="m 90.890407,151.0255 12.001963,33.01147 V 151.0255 H 110.08 v 52.52001 h -7.18763 L 90.890407,170.53404 v 33.01147 H 83.702778 V 151.0255 Z"
       id="path28"
       style="opacity:1;fill:#0a3641;fill-opacity:1" /><path
       class="cls-4"
       d="m 141.98312,181.41063 v 22.13135 h -7.2913 v -22.35759 l -10.71546,-30.16241 h 8.01942 l 6.3434,20.85883 h 0.43618 l 6.19572,-20.85883 h 7.72749 l -10.71545,30.38511 z"
       id="path29"
       style="opacity:1;fill:#0a3641;fill-opacity:1" /><path
       class="cls-4"
       d="m 177.11556,151.15779 c 3.05471,0 7.42251,0.14771 10.62464,3.13715 3.71296,3.50995 3.92895,9.03163 3.92895,11.27194 v 23.06442 c 0,3.58381 -0.36341,7.38919 -3.27412,10.67407 -3.20214,3.5838 -7.42251,4.10432 -10.26124,4.10432 h -10.84062 v -52.25542 h 9.82239 z m -2.5473,44.93656 h 3.27412 c 1.52907,0 3.42155,-0.22509 4.8752,-1.79014 1.52907,-1.7163 1.67306,-4.40328 1.67306,-6.11956 v -23.14179 c 0,-1.49472 -0.21942,-3.35873 -1.38165,-4.85345 -1.38165,-1.71629 -2.91072,-1.71629 -4.73121,-1.71629 h -3.71296 v 37.62123 z"
       id="path30"
       style="opacity:1;fill:#0a3641;fill-opacity:1" /><path
       class="cls-4"
       d="m 227.14807,203.60814 -2.46501,-11.25479 h -9.56775 l -2.46501,11.25479 h -7.47602 l 11.43412,-52.52001 h 6.57805 l 11.43412,52.52001 h -7.47602 z m -7.40207,-37.88596 -3.88767,19.95747 h 7.92325 z"
       id="path31"
       style="opacity:1;fill:#0a3641;fill-opacity:1" /><path
       class="cls-4"
       d="m 259.99309,181.41063 v 22.13135 h -7.22075 V 181.18439 L 242.1556,151.02198 h 7.94555 l 6.28497,20.85883 h 0.43215 l 6.13865,-20.85883 h 7.6563 l -10.61673,30.38511 z"
       id="path32"
       style="opacity:1;fill:#0a3641;fill-opacity:1" /><path
       class="cls-4"
       d="m 301.67986,164.21753 c 0,-1.11294 -0.074,-3.2688 -1.27124,-4.75273 -0.6726,-0.81545 -1.79242,-1.7079 -3.96163,-1.7079 -1.04586,0 -2.465,0.22399 -3.66229,1.41041 -1.41915,1.48743 -1.57057,3.5663 -1.57057,5.27421 0,1.41042 0.22538,4.01077 1.19729,5.4212 0.8205,1.26342 2.31711,1.85839 3.43693,2.30286 l 4.56027,1.63441 c 2.24315,0.81546 4.85958,1.7814 6.7999,4.45525 2.01778,2.74734 2.24316,5.71868 2.24316,8.98749 v 1.7814 c 0,5.2742 -1.41915,9.28497 -3.58835,11.51436 -1.94384,2.00537 -5.38076,3.4158 -9.71566,3.4158 -5.30681,0 -8.74374,-2.15588 -10.46572,-4.53225 -2.39106,-3.19532 -2.39106,-8.09505 -2.39106,-8.7635 v -1.70791 h 7.47602 v 1.41043 c 0,1.18992 0.1479,3.26881 1.19729,4.60574 1.27124,1.56091 3.14113,1.7079 4.10952,1.7079 2.8418,0 4.10952,-1.11294 4.70817,-1.85839 1.11982,-1.41042 1.19729,-3.5663 1.19729,-5.12722 v -1.93189 c 0,-1.7814 -0.22537,-4.01078 -1.19729,-5.3477 -0.97192,-1.33692 -2.76433,-2.00538 -3.58835,-2.30287 l -5.45471,-1.93189 c -2.69038,-0.96594 -5.38076,-2.30287 -6.87738,-5.79567 -1.04586,-2.37636 -1.11981,-4.97672 -1.11981,-7.57708 v -1.48742 c 0,-4.30824 1.71846,-7.57706 3.88767,-9.65595 2.465,-2.37635 5.60613,-3.19531 9.04306,-3.19531 7.47249,0 12.4835,4.82974 12.4835,13.44624 v 1.7079 h -7.47249 v -1.41041 z"
       id="path33"
       style="opacity:1;fill:#0a3641;fill-opacity:1" /><path
       class="cls-1"
       d="m 292.59806,219.5002 c -6.84216,0.16903 -13.68784,0.36975 -20.53,0.49653 -13.69488,0.25706 -27.38977,0.47891 -41.08465,0.70781 -7.60984,0.12677 -15.21615,0.28171 -22.82598,0.34158 -15.57886,0.12325 -31.15771,0.14085 -46.73657,0.28523 -22.78724,0.21481 -45.57448,-0.0317 -68.361733,-0.0704 -12.821564,-0.0211 -25.643131,-0.22889 -38.464697,-0.41553 -13.170189,-0.19016 -26.336856,-0.43313 -39.503524,-0.70429 -8.0711423,-0.1655 -16.1387639,-0.42609 -24.2099064,-0.64794 -0.1162076,-0.22185 -0.052822,-0.36623 0.1866363,-0.43666 0.80641,-0.0387 1.6092985,-0.0106 2.4157085,-0.0176 2.0600429,-0.0634 4.1236073,0.13382 6.18012881,-0.11269 10.24739249,-0.14085 20.49126479,-0.32045 30.73865779,-0.40848 17.336054,-0.15142 34.675629,-0.19016 52.011682,-0.37327 32.340917,-0.34158 64.685347,-0.21833 97.026267,-0.21129 15.17036,0 30.34425,0.14438 45.51462,0.26411 14.52242,0.11268 29.04485,0.27115 43.57079,0.42609 7.08514,0.0775 14.17028,0.1972 21.2519,0.29932 0.8874,0.26763 1.80297,0.0246 2.69742,0.14438 0.20072,0.0951 0.24298,0.23946 0.12325,0.42962 z"
       id="path34"
       style="opacity:1;fill:#0a3641;fill-opacity:1" /><path
       class="cls-2"
       d="m 292.56989,219.27835 c -0.91558,-0.23593 -1.92271,0.23946 -2.79603,-0.34862 h 12.18067 v 0.56695 h -5.86672 c -1.15856,-0.30636 -2.35937,0.0845 -3.51792,-0.21833 z"
       id="path35"
       style="opacity:1;fill:#0a3641;fill-opacity:1" /><path
       class="cls-2"
       d="m -6.6927277,219.19736 c -0.799367,0.0282 -1.6022556,0.0528 -2.4016226,0.081 -1.1585537,0.30284 -2.3628867,-0.088 -3.5214407,0.21833 h -5.916021 c -0.0035,-0.14438 -0.01056,-0.28524 -0.01409,-0.42962 3.961621,-0.081 7.919721,-0.32749 11.8954273,-0.13029 0.091557,0.0739 0.1162076,0.13734 0.07395,0.19016 -0.038736,0.0493 -0.077472,0.0704 -0.1126861,0.0704 z"
       id="path36"
       style="opacity:1;fill:#0a3641;fill-opacity:1" /><path
       class="cls-3"
       d="m -6.6927277,219.19736 c 0.021129,-0.0845 0.035214,-0.17255 0.038736,-0.26059 2.1058217,0 4.2081219,-0.004 6.31394351,-0.007 -2.09525731,0.6233 -4.23629341,0.1303 -6.35267941,0.26763 z"
       id="path37"
       style="opacity:1;fill:#0a3641;fill-opacity:1" /><path
       class="cls-3"
       d="m 292.56989,219.27835 c 1.17616,0.0106 2.37345,-0.34158 3.51792,0.21833 -1.16208,0 -2.32768,0 -3.48975,0.004 -0.007,-0.0739 -0.0176,-0.1479 -0.0282,-0.22185 z"
       id="path38"
       style="opacity:1;fill:#0a3641;fill-opacity:1" /><path
       class="cls-3"
       d="m -12.615791,219.49668 c 1.144468,-0.55991 2.341758,-0.20776 3.5214407,-0.21833 -0.010564,0.074 -0.021129,0.1479 -0.028172,0.22185 -1.1655967,0 -2.3276717,0 -3.4932687,-0.004 z"
       id="path39"
       style="opacity:1;fill:#0a3641;fill-opacity:1" /><path
       d="m 273.63899,241.24251 c 0,0 2.44555,4.26208 5.25601,7.28018 -5.22272,5.56226 -6.8479,7.98001 -6.84816,7.98039 4.3e-4,-2e-4 3.12664,-1.47568 8.21138,-6.57376 5.07668,5.08702 8.19701,6.55961 8.19744,6.55981 -2.6e-4,-3.9e-4 -1.62267,-2.41387 -6.83525,-7.96644 2.80509,-3.01727 5.2431,-7.26622 5.2431,-7.26622 0,0 -3.76807,2.99562 -6.60529,5.84305 -2.83876,-2.85151 -6.61923,-5.85701 -6.61923,-5.85701 z"
       style="opacity:1;fill:#0a3641;fill-opacity:1;stroke:none;stroke-width:0.265;stroke-linecap:square;stroke-linejoin:round;paint-order:stroke fill markers"
       id="path75" /></g></svg>
