<?xml version="1.0" encoding="UTF-8" standalone="no"?>
<!-- Created with Inkscape (http://www.inkscape.org/) -->

<svg
   width="120.25025mm"
   height="46.796185mm"
   viewBox="0 0 120.25025 46.796185"
   version="1.1"
   id="svg1"
   xml:space="preserve"
   sodipodi:docname="RD-logo-footer-version-lightmode.svg"
   inkscape:version="1.4.2 (f4327f4, 2025-05-13)"
   xmlns:inkscape="http://www.inkscape.org/namespaces/inkscape"
   xmlns:sodipodi="http://sodipodi.sourceforge.net/DTD/sodipodi-0.dtd"
   xmlns="http://www.w3.org/2000/svg"
   xmlns:svg="http://www.w3.org/2000/svg"><sodipodi:namedview
     id="namedview1"
     pagecolor="#ffffff"
     bordercolor="#000000"
     borderopacity="0.25"
     inkscape:showpageshadow="2"
     inkscape:pageopacity="0.0"
     inkscape:pagecheckerboard="0"
     inkscape:deskcolor="#d1d1d1"
     inkscape:document-units="mm"
     inkscape:zoom="3.7272618"
     inkscape:cx="227.24457"
     inkscape:cy="88.536846"
     inkscape:window-width="1920"
     inkscape:window-height="1057"
     inkscape:window-x="-8"
     inkscape:window-y="131"
     inkscape:window-maximized="1"
     inkscape:current-layer="svg1" /><defs
     id="defs1"><style
       id="style1">
      .cls-1 {
        fill: var(--text-color);
        stroke-width: 0px;
      }
    </style></defs><g
     id="layer1"
     transform="translate(-79.503679,-105.01752)"
     style="fill:#0a3641"><path
       id="path3"
       class="cls-1"
       d="m 131.95697,105.02296 h 0.41109 c 0.50593,0.31896 1.09713,0.43994 1.64295,0.66404 0.71218,0.29148 1.39411,0.62694 2.02928,1.04353 0.32447,0.21172 0.65856,0.40971 0.98853,0.60494 0.27222,0.16227 0.4427,0.41519 0.70668,0.58843 0.31208,0.20348 0.66817,0.28047 0.97339,0.47982 0.45371,0.29972 0.81666,0.6943 1.19887,1.07101 0.15681,0.15399 0.30247,0.3066 0.52107,0.39459 0.36022,0.14719 0.7053,0.33271 0.91016,0.62281 0.53345,0.0797 0.73829,-0.60769 1.22499,-0.38496 0.11006,-0.1099 0.1911,-0.1911 0.29146,-0.29147 0.16095,0 0.40284,-0.0756 0.50871,0.0133 0.34646,0.29011 0.64342,0.0358 0.90052,-0.0756 0.54308,-0.23647 1.06277,-0.53756 1.55909,-0.8634 0.37809,-0.24747 0.77404,-0.44958 1.18651,-0.61182 0.39183,-0.15531 0.75204,-0.41932 1.20575,-0.40008 0.0481,10e-4 0.099,-0.081 0.15945,-0.13476 0.75205,0.39185 1.56047,0.64757 2.33176,0.98853 0.49083,0.2186 0.98302,0.48395 1.30474,0.92665 0.43583,0.1031 0.87304,0.15531 1.26349,0.31485 0.39596,0.16228 0.81117,0.27497 1.21263,0.36571 0.39733,0.0893 0.75205,0.34371 1.18236,0.30659 0.1457,-0.0116 0.29974,0.0907 0.41247,0.14985 0.51969,0.26809 1.07513,0.3987 1.63333,0.52244 0.13343,0.0288 0.28047,0.10857 0.33958,0.16095 0.33822,0.30109 0.75617,0.39733 1.15901,0.52244 0.1746,0.0535 0.2296,0.21447 0.36572,0.28045 0.42207,0.20211 0.78778,0.50458 1.27586,0.63657 0.15946,-0.13476 0.34921,-0.11553 0.6063,0 1.23187,0.55682 2.46374,1.1205 3.653,1.75982 0.91977,0.49219 1.82993,1.01601 2.68372,1.60996 0.32033,0.22272 0.63792,0.50319 0.91151,0.82078 0.24199,0.28047 0.59946,0.48395 0.94317,0.64343 0.43719,0.20485 0.91289,0.32996 1.3721,0.48945 0.45783,0.15946 0.93765,0.28048 1.3721,0.48807 0.69431,0.33272 1.38586,0.66269 1.97843,1.19063 0.5293,0.47157 1.03388,0.97615 1.46283,1.51921 0.8098,1.02564 1.7172,1.95093 2.6356,2.87208 0.77955,0.78092 1.92206,1.44221 3.16492,1.95092 0.93491,0.38221 1.79556,0.89777 2.57648,1.56734 0.82904,0.71216 1.75569,1.30885 2.73596,1.81205 0.12929,0.066 0.2791,-0.0454 0.37671,0.0893 -0.51969,0.12647 -1.18513,0.0646 -1.67457,-0.0116 -0.45095,-0.0701 -0.87441,-0.22272 -1.28962,-0.3712 -0.40283,-0.14438 -0.84003,-0.12647 -1.22912,-0.34234 -0.1911,-0.10591 -0.48944,0.0618 -0.68879,-0.15116 -0.54308,0.0577 -0.87303,-0.33548 -1.25525,-0.60357 -0.60356,-0.42483 -1.20162,-0.86066 -1.78319,-1.31574 -0.62005,-0.48669 -1.3226,-0.89228 -1.71582,-1.62233 -0.0206,-0.0384 -0.0618,-0.066 -0.0963,-0.0976 -0.87991,-0.81393 -1.56595,-1.81482 -2.47198,-2.60398 -0.40696,-0.35609 -0.81942,-0.7053 -1.32673,-0.92803 -0.31898,-0.1389 -0.65306,-0.18836 -0.9789,-0.2846 -0.71356,-0.21311 -1.34737,-0.60769 -2.01004,-0.93077 -0.73418,-0.35747 -1.40098,-0.83592 -2.04991,-1.33774 -0.65168,-0.5032 -1.32675,-0.97753 -2.00042,-1.45185 -0.17186,-0.121 -0.36571,-0.2516 -0.56369,-0.28458 -0.62968,-0.1031 -1.00777,-0.57882 -1.46285,-0.93491 -0.24334,-0.18836 -0.45233,-0.40971 -0.71491,-0.58707 -0.47433,-0.32309 -1.00227,-0.48256 -1.54673,-0.56231 -0.25983,-0.0371 -0.48669,-0.22685 -0.76441,-0.15266 -0.0454,-0.0166 -0.0922,-0.13476 -0.13757,0 0.44409,0.52795 0.94178,0.99402 1.47796,1.43673 0.85792,0.70942 1.7612,1.34323 2.67411,1.97291 0.2516,0.17323 0.53893,0.25435 0.78365,0.42483 0.0317,0.12233 0.008,0.1911 -0.13741,0.13741 -0.43171,0.0247 -0.77266,-0.23921 -1.13838,-0.39595 -0.99539,-0.42758 -1.97016,-0.90191 -2.86381,-1.52334 -0.2516,-0.1746 -0.49084,-0.36297 -0.73143,-0.55131 -0.85516,-0.6723 -1.59759,-1.46423 -2.36751,-2.22589 -0.25022,-0.24747 -0.49769,-0.44682 -0.87991,-0.53345 -0.35471,-0.0797 -0.69017,-0.30247 -1.04488,-0.44545 -0.91841,-0.37396 -1.81206,-0.80842 -2.72496,-1.19613 -0.93628,-0.39733 -1.83406,-0.87303 -2.73459,-1.3391 -0.21036,-0.10857 -0.41521,-0.20761 -0.60906,-0.35197 -0.62831,-0.46882 -1.32398,-0.74791 -2.14478,-0.57881 -0.0509,0.0535 -0.11272,0.11818 -0.16911,0.17736 -0.022,0.28185 0.11686,0.51418 0.21449,0.74241 0.28321,0.66407 0.23096,1.30199 -0.033,1.94681 -0.0234,0.0592 -0.0166,0.13326 -0.0481,0.18559 -0.32309,0.54308 -0.29835,1.14114 -0.25848,1.77906 0.0922,0.29148 0.35746,0.50045 0.58982,0.73556 0.52794,0.53069 1.06138,1.06002 1.58382,1.58246 -0.10857,0.23509 -0.33821,0.19522 -0.54306,0.25435 0.01,0.52657 0.0756,1.06688 -0.29559,1.48485 0.0976,0.17185 0.2241,0.099 0.35884,0.12514 0.14304,-0.14305 0.29834,-0.29698 0.43994,-0.43859 0.23511,0.0673 0.36984,0.22273 0.4427,0.36433 0.44409,0.85792 0.97066,1.67872 1.26075,2.67823 -0.28323,-0.0247 -0.47708,-0.14304 -0.6448,-0.30109 -0.49359,-0.46746 -1.06415,-0.83179 -1.63471,-1.20988 h -0.6723 c -0.20761,0.088 -0.18424,0.34371 -0.33822,0.4647 -0.15946,0.76442 0.39733,1.15763 0.86066,1.5481 0.55957,0.47019 1.20162,0.84278 1.79556,1.27448 0.29834,0.21722 0.60218,0.44545 0.91703,0.60494 0.55132,0.2791 0.80978,0.75755 0.91427,1.26486 0.15117,0.7383 0.3396,1.46973 0.45783,2.21765 0.10592,0.65856 0.29697,1.32398 0.60219,1.93442 0.0688,0.13741 0.0605,0.24747 0.0234,0.39733 -0.0811,0.005 -0.16772,0.0116 -0.27222,0.0192 -0.3987,-0.2791 -0.64067,-0.70805 -0.92115,-1.09576 -0.72592,-1.00502 -1.42847,-2.0279 -2.37301,-2.85008 -0.34646,-0.30109 -0.73966,-0.54444 -1.11224,-0.80428 -0.59944,-0.41659 -1.05314,-0.94453 -1.44223,-1.53159 -0.11139,-0.16774 -0.25573,-0.27497 -0.35059,-0.44271 -0.0756,0.0756 -0.12515,0.12515 -0.2186,0.21861 0.066,0.50045 -0.066,1.04214 0.12233,1.60033 0.11685,0.34784 0.022,0.76441 0.022,1.15351 -0.17598,-0.0247 -0.21997,-0.12233 -0.28733,-0.26947 -0.19662,-0.42072 -0.40972,-0.82904 -0.57471,-1.269 -0.16227,-0.43034 -0.50868,-0.79054 -0.75067,-1.19475 -0.24609,-0.40971 -0.58567,-0.73142 -0.92802,-1.05313 -0.58981,-0.55407 -1.09989,-1.18926 -1.77631,-1.65946 -0.45508,-0.31621 -0.7493,-0.80016 -1.04076,-1.35285 0.13194,-0.51558 -0.0467,-1.08752 -0.14984,-1.64572 -0.11404,-0.61455 -0.38635,-1.20299 -0.61457,-1.79555 -0.15531,-0.40146 -0.28596,-0.79466 -0.34371,-1.23325 -0.0922,-0.70117 -0.33135,-1.35423 -0.85241,-1.9083 -0.59944,-0.63655 -1.33774,-1.05589 -2.0719,-1.47246 -0.47845,-0.27222 -0.93904,-0.54032 -1.324,-0.93629 -0.46194,-0.47294 -0.94039,-0.93351 -1.40373,-1.40648 -0.75891,-0.77404 -1.65532,-1.40372 -2.36336,-2.23001 -0.11139,-0.13061 -0.23511,-0.10989 -0.38084,-0.11553 -0.20623,0.38084 -0.44134,0.75755 -0.6187,1.15901 -0.29834,0.67505 -0.72867,1.20299 -1.3446,1.63333 -0.65718,0.45781 -1.06688,1.11224 -1.00364,1.97291 0.008,0.10724 0.0688,0.15813 0.12929,0.22272 -0.15117,0.25848 -0.44683,0.46882 -0.88404,0.63382 -0.18559,0.31896 -0.39733,0.63792 -0.56506,0.98027 -0.41659,0.85654 -0.66956,1.77769 -0.98715,2.67271 -0.12233,0.34509 -0.0206,0.76856 -0.0206,1.15626 v 0.57881 c -0.0825,0.0907 -0.14305,0.15813 -0.20761,0.23098 -0.3932,-0.39184 -0.4427,-0.93078 -0.59668,-1.40648 -0.1636,-0.50182 -0.2461,-1.03389 -0.40972,-1.54259 -0.0907,-0.28184 0.0673,-0.62694 -0.24609,-0.84003 -1.16725,1.43946 -2.36887,2.91881 -3.56776,4.39815 0.33547,0.78505 0.72455,1.57697 0.64756,2.4995 -0.026,0.31758 0.0179,0.64067 -0.008,0.95827 -0.0756,0.89503 -0.40008,1.67733 -1.08339,2.29325 -0.10442,0.0935 -0.28185,0.0275 -0.33547,0.19112 -0.54857,0.0963 -0.98163,-0.14852 -1.35148,-0.50182 -0.59393,-0.56645 -1.19612,-1.13289 -1.73643,-1.75021 -0.29836,-0.34095 -0.58707,-0.69842 -0.85379,-1.07376 -0.31347,-0.43994 -0.75892,-0.7864 -1.14939,-1.1755 h -0.92803 c -1.071,0.5857 -2.02515,1.29649 -2.93669,2.07466 -0.72042,0.61457 -1.44634,1.22363 -2.20664,1.78869 -0.85515,0.63381 -1.71168,1.27036 -2.5531,1.91793 -0.69155,0.53206 -1.45323,0.93214 -2.16401,1.41884 -0.32722,0.2241 -0.74381,0.24335 -1.14665,0.18562 -0.0646,-0.0647 -0.12928,-0.12929 -0.18972,-0.18974 -0.0839,-0.6998 0.26259,-1.36798 0.10177,-2.08979 -0.61319,-0.21447 -1.13288,0.14023 -1.59621,0.44547 -0.94452,0.62143 -1.86154,1.28685 -2.74558,1.99903 -0.54032,0.43446 -1.092999,0.8689 -1.638829,1.29924 -0.274971,0.21722 -0.617304,0.0769 -0.833166,0.32446 -0.776793,0.0797 -1.504092,0.42896 -2.297377,0.40971 -0.250223,0.23784 -0.609066,0.0385 -0.871654,0.2131 -0.270843,0.18011 -0.622807,-0.0852 -0.890915,0.18286 -0.06879,0.0688 -0.262589,0.0166 -0.397331,0.0166 h -2.128273 c 0.58707,-0.26534 0.823535,-0.76716 1.340491,-0.86615 0.639299,-0.51145 1.3996,-0.83454 2.067773,-1.30749 0.265357,-0.18834 0.482578,-0.42758 0.767179,-0.60494 0.54719,-0.34233 1.099882,-0.6558 1.713058,-0.83727 0.298342,-0.088 0.56645,-0.23924 0.785048,-0.41109 0.459207,-0.36708 0.967891,-0.66406 1.490346,-0.88266 0.70391,-0.29422 1.14938,-0.80154 1.57008,-1.38586 0.28734,-0.39871 0.49082,-0.88952 1.00502,-1.07789 0.081,-0.0302 0.17598,-0.0206 0.30935,-0.033 0.57331,-0.72867 1.46146,-1.0944 2.22313,-1.63333 0.32859,-0.23236 0.75067,-0.34921 0.90053,-0.79604 0.0385,-0.11685 0.1691,-0.2296 0.28598,-0.28597 0.18834,-0.0922 0.3987,-0.13609 0.60081,-0.20211 -0.0116,-0.32859 0.29834,-0.25297 0.45781,-0.35747 0.8208,-0.53069 1.75707,-0.85103 2.57924,-1.37897 0.2406,-0.15399 0.44958,-0.35608 0.66543,-0.54444 0.36021,-0.31896 0.83867,-0.40696 1.23187,-0.6723 0.5362,-0.36297 1.09988,-0.68606 1.61957,-1.10676 h 0.37809 c 0.10724,-0.0948 0.19249,-0.2241 0.31072,-0.2681 0.48396,-0.17873 0.83042,-0.54583 1.225,-0.84692 0.20898,-0.15946 0.39045,-0.38357 0.62555,-0.47157 0.76581,-0.29146 1.37898,-0.84141 2.11591,-1.17688 0.7493,-0.34233 1.38584,-0.86477 2.04991,-1.34185 0.37671,-0.27086 0.79328,-0.5087 1.22499,-0.67367 0.55957,-0.21449 1.01052,-0.57058 1.46285,-0.93491 0.37534,-0.30109 0.84141,-0.4757 1.13426,-0.86479 h 0.54444 c 1.10814,-0.68329 2.19976,-1.35699 3.3134,-2.04303 h 0.52657 c 0.2186,-0.22823 0.4372,-0.45783 0.66818,-0.6998 0.49494,0.0867 0.88403,-0.14437 1.26487,-0.40696 0.24472,-0.1691 0.49769,-0.36297 0.79328,-0.39184 0.29422,-0.0302 0.46745,-0.33133 0.77405,-0.28734 l -0.007,-0.003 z"
       style="fill:#0a3641" /><g
       id="g1"
       transform="matrix(1.5177548,0,0,1.5177548,-58.83045,-69.263171)"
       style="stroke-width:0.658868;fill:#0a3641"><path
         id="path34"
         class="cls-1"
         d="m 166.23658,139.49142 c -1.60914,0.0398 -3.21827,0.0871 -4.82741,0.11696 -3.21993,0.0605 -6.43987,0.1128 -9.6598,0.16672 -1.78912,0.0299 -3.57742,0.0663 -5.36655,0.0804 -3.66286,0.029 -7.32572,0.0332 -10.98858,0.0672 -5.35743,0.0506 -10.71569,-0.007 -16.07311,-0.0166 -3.01423,-0.005 -6.02929,-0.0539 -9.04352,-0.0979 -3.09634,-0.0448 -6.19268,-0.10202 -9.2882,-0.16589 -1.897785,-0.039 -3.794741,-0.10036 -5.692527,-0.15262 -0.02737,-0.0522 -0.01244,-0.0863 0.04396,-0.10285 0.189945,-0.009 0.37823,-0.002 0.568175,-0.004 0.4844,-0.0149 0.969629,0.0315 1.453199,-0.0265 2.409558,-0.0332 4.818283,-0.0755 7.227013,-0.0962 4.07593,-0.0357 8.15268,-0.0448 12.22861,-0.0879 7.60441,-0.0804 15.20883,-0.0514 22.81324,-0.0498 3.56664,0 7.13495,0.034 10.70159,0.0622 3.41485,0.0265 6.82888,0.0639 10.24456,0.10036 1.66554,0.0183 3.33191,0.0465 4.99662,0.0705 0.20902,0.063 0.42385,0.006 0.63453,0.034 0.0473,0.0224 0.0572,0.0564 0.029,0.10119 v 0 z"
         style="fill:#0a3641" /><path
         id="path35"
         class="cls-1"
         d="m 166.22994,139.43917 c -0.21566,-0.0556 -0.45205,0.0564 -0.65775,-0.0821 h 2.86409 v 0.13354 h -1.37937 c -0.27206,-0.0722 -0.55491,0.0199 -0.82697,-0.0514 z"
         style="fill:#0a3641" /><path
         id="path36"
         class="cls-1"
         d="m 95.867546,139.42009 c -0.188285,0.007 -0.376571,0.0124 -0.564856,0.0191 -0.272061,0.0713 -0.555733,-0.0207 -0.827793,0.0514 h -1.390991 c 0,-0.034 -0.0025,-0.0672 -0.0033,-0.10119 0.931475,-0.0191 1.862119,-0.0771 2.796912,-0.0307 0.02156,0.0174 0.02737,0.0324 0.01742,0.0448 -0.0091,0.0116 -0.01825,0.0166 -0.02654,0.0166 v 0 z"
         style="fill:#0a3641" /><path
         id="path37"
         class="cls-1"
         d="m 95.867546,139.42009 c 0.005,-0.0199 0.0083,-0.0406 0.0091,-0.0614 0.495183,0 0.989536,-8.3e-4 1.484719,-0.002 -0.492694,0.14681 -0.996172,0.0307 -1.493843,0.063 z"
         style="fill:#0a3641" /><path
         id="path38"
         class="cls-1"
         d="m 166.22994,139.43917 c 0.27621,0.002 0.55822,-0.0805 0.82697,0.0514 -0.27289,0 -0.54744,0 -0.82033,8.3e-4 -0.002,-0.0174 -0.004,-0.0348 -0.007,-0.0523 z"
         style="fill:#0a3641" /><path
         id="path39"
         class="cls-1"
         d="m 94.474897,139.49059 c 0.268742,-0.13188 0.550756,-0.0489 0.827793,-0.0514 -0.0025,0.0174 -0.005,0.0348 -0.0066,0.0523 -0.273719,0 -0.547438,0 -0.821157,-8.3e-4 z"
         style="fill:#0a3641" /></g><g
       id="g2"
       transform="translate(3.5182398,-1.2338156)"
       style="fill:#0a3641"><path
         id="path75-2"
         class="cls-1"
         d="m 76.515882,134.37878 c 0,0 0.81508,1.78422 1.75247,3.04852 -1.74071,2.32921 -2.282913,3.34097 -2.282913,3.34097 0,0 1.042073,-0.61739 2.738083,-2.75165 1.69248,2.12983 2.73339,2.74573 2.73339,2.74573 0,0 -0.54104,-1.01027 -2.27939,-3.33505 0.93503,-1.26283 1.74775,-3.04261 1.74775,-3.04261 0,0 -1.25612,1.25396 -2.20175,2.4459 -0.9468,-1.19341 -2.20646,-2.45181 -2.20646,-2.45181 v 0 z"
         style="fill:#0a3641" /><path
         id="path75"
         class="cls-1"
         d="m 191.06469,134.33634 c 0,0 0.85301,1.80791 1.83405,3.08902 -1.82173,2.36017 -2.38918,3.38535 -2.38918,3.38535 0,0 1.09058,-0.62559 2.86554,-2.7882 1.77125,2.15812 2.86059,2.78221 2.86059,2.78221 0,0 -0.56622,-1.02368 -2.38548,-3.37936 0.97857,-1.27961 1.82912,-3.08303 1.82912,-3.08303 0,0 -1.31461,1.27063 -2.30423,2.47839 -0.99088,-1.20925 -2.30918,-2.48438 -2.30918,-2.48438 z"
         style="fill:#0a3641" /></g><path
       style="font-weight:600;font-stretch:semi-condensed;font-size:7.05556px;line-height:1;font-family:'Barlow Semi Condensed';-inkscape-font-specification:'Barlow Semi Condensed,  Semi-Bold Semi-Condensed';letter-spacing:-0.105833px;fill:#0a3641;stroke-width:0;stroke-linecap:round;paint-order:fill markers stroke"
       d="m 88.751167,138.1777 c -0.05174,0 -0.08467,-0.0235 -0.09878,-0.0705 l -0.762,-2.02495 c -0.0094,-0.0188 -0.02117,-0.0282 -0.03528,-0.0282 h -0.606778 c -0.02352,0 -0.03528,0.0118 -0.03528,0.0353 v 2.00378 c 0,0.0235 -0.0094,0.0447 -0.02822,0.0635 -0.01411,0.0141 -0.03293,0.0212 -0.05644,0.0212 h -0.649111 c -0.02352,0 -0.04469,-0.007 -0.0635,-0.0212 -0.01411,-0.0188 -0.02117,-0.04 -0.02117,-0.0635 v -4.76956 c 0,-0.0235 0.0071,-0.0423 0.02117,-0.0564 0.01881,-0.0188 0.03998,-0.0282 0.0635,-0.0282 h 1.629834 c 0.268111,0 0.505649,0.0611 0.712612,0.18345 0.206963,0.11759 0.366889,0.28693 0.479778,0.508 0.112889,0.21637 0.169333,0.46566 0.169333,0.74789 0,0.30574 -0.07056,0.5715 -0.211667,0.79727 -0.141111,0.22578 -0.333962,0.38571 -0.578555,0.47978 -0.02352,0.009 -0.03058,0.0259 -0.02117,0.0494 l 0.832556,2.07434 c 0.0047,0.009 0.0071,0.0235 0.0071,0.0423 0,0.0376 -0.02352,0.0564 -0.07055,0.0564 z m -1.502834,-4.23333 c -0.02352,0 -0.03528,0.0118 -0.03528,0.0353 v 1.40405 c 0,0.0235 0.01176,0.0353 0.03528,0.0353 h 0.740834 c 0.197555,0 0.357481,-0.0658 0.479778,-0.19756 0.122296,-0.13641 0.183444,-0.31515 0.183444,-0.53622 0,-0.22578 -0.06115,-0.40452 -0.183444,-0.53622 -0.122297,-0.13641 -0.282223,-0.20461 -0.479778,-0.20461 z m 4.056952,0.5715 c 0.268111,0 0.505648,0.0517 0.712611,0.15522 0.206963,0.0988 0.366889,0.23754 0.479778,0.41628 0.117593,0.17874 0.176389,0.38335 0.176389,0.61383 v 2.39184 c 0,0.0235 -0.0094,0.0447 -0.02822,0.0635 -0.01411,0.0141 -0.03293,0.0212 -0.05644,0.0212 h -0.649112 c -0.02352,0 -0.04469,-0.007 -0.0635,-0.0212 -0.01411,-0.0188 -0.02117,-0.04 -0.02117,-0.0635 v -0.17639 c 0,-0.0141 -0.0047,-0.0235 -0.01411,-0.0282 -0.0094,-0.005 -0.01881,-0.002 -0.02822,0.007 -0.197555,0.22578 -0.48213,0.33867 -0.853723,0.33867 -0.310445,0 -0.573852,-0.0823 -0.790222,-0.24695 -0.216371,-0.16933 -0.324556,-0.44215 -0.324556,-0.81844 0,-0.39511 0.124648,-0.6891 0.373944,-0.88195 0.254001,-0.19285 0.602075,-0.28927 1.044223,-0.28927 h 0.55739 c 0.02352,0 0.03528,-0.0118 0.03528,-0.0353 v -0.17639 c 0,-0.17404 -0.04939,-0.31045 -0.148166,-0.40922 -0.09407,-0.10349 -0.225779,-0.15523 -0.395112,-0.15523 -0.136407,0 -0.249296,0.0329 -0.338667,0.0988 -0.08467,0.0611 -0.138759,0.1458 -0.162277,0.254 -0.01411,0.0517 -0.04704,0.0776 -0.09878,0.0776 l -0.68439,-0.0423 c -0.02352,0 -0.04469,-0.007 -0.0635,-0.0212 -0.01411,-0.0188 -0.01882,-0.0376 -0.01411,-0.0564 0.02822,-0.30104 0.166979,-0.54563 0.416278,-0.73378 0.254,-0.18815 0.566797,-0.28222 0.93839,-0.28222 z m -0.134056,3.05506 c 0.183445,0 0.343371,-0.0517 0.479778,-0.15523 0.136407,-0.10818 0.204611,-0.24929 0.204611,-0.42333 v -0.36689 c 0,-0.0235 -0.01176,-0.0353 -0.03528,-0.0353 h -0.472723 c -0.206963,0 -0.371593,0.0447 -0.493889,0.13406 -0.117593,0.0894 -0.176389,0.21872 -0.176389,0.38805 0,0.15052 0.04469,0.26576 0.134056,0.34573 0.09407,0.0753 0.214018,0.11289 0.359833,0.11289 z m 2.547062,-3.49251 c -0.145815,0 -0.265759,-0.047 -0.359833,-0.14111 -0.08937,-0.0941 -0.134056,-0.21402 -0.134056,-0.35983 0,-0.14581 0.04469,-0.26576 0.134056,-0.35983 0.09407,-0.0941 0.214018,-0.14112 0.359833,-0.14112 0.150519,0 0.270463,0.047 0.359834,0.14112 0.09407,0.0894 0.141111,0.20931 0.141111,0.35983 0,0.14581 -0.04704,0.26576 -0.141111,0.35983 -0.09407,0.0941 -0.214019,0.14111 -0.359834,0.14111 z m -0.324555,4.09928 c -0.02352,0 -0.04469,-0.007 -0.0635,-0.0212 -0.01411,-0.0188 -0.02117,-0.04 -0.02117,-0.0635 v -3.44312 c 0,-0.0235 0.0071,-0.0423 0.02117,-0.0564 0.01881,-0.0188 0.03998,-0.0282 0.0635,-0.0282 h 0.649111 c 0.02352,0 0.04234,0.009 0.05645,0.0282 0.01881,0.0141 0.02822,0.0329 0.02822,0.0564 v 3.44312 c 0,0.0235 -0.0094,0.0447 -0.02822,0.0635 -0.01411,0.0141 -0.03293,0.0212 -0.05645,0.0212 z m 3.069173,-3.66183 c 0.343371,0 0.611482,0.10818 0.804334,0.32455 0.192852,0.21637 0.289278,0.51506 0.289278,0.89606 v 2.35656 c 0,0.0235 -0.0094,0.0447 -0.02822,0.0635 -0.01411,0.0141 -0.03293,0.0212 -0.05645,0.0212 H 96.82274 c -0.02352,0 -0.04469,-0.007 -0.0635,-0.0212 -0.01411,-0.0188 -0.02117,-0.04 -0.02117,-0.0635 v -2.24367 c 0,-0.19285 -0.04939,-0.34572 -0.148167,-0.45861 -0.09407,-0.11289 -0.223426,-0.16934 -0.388056,-0.16934 -0.169333,0 -0.305741,0.0588 -0.409222,0.17639 -0.09878,0.11289 -0.148167,0.26576 -0.148167,0.45861 v 2.23662 c 0,0.0235 -0.0094,0.0447 -0.02822,0.0635 -0.01411,0.0141 -0.03293,0.0212 -0.05644,0.0212 h -0.649111 c -0.02352,0 -0.04469,-0.007 -0.0635,-0.0212 -0.01411,-0.0188 -0.02117,-0.04 -0.02117,-0.0635 v -3.43606 c 0,-0.0235 0.0071,-0.0424 0.02117,-0.0565 0.01881,-0.0188 0.03998,-0.0282 0.0635,-0.0282 h 0.649111 c 0.02352,0 0.04233,0.009 0.05644,0.0282 0.01881,0.0141 0.02822,0.033 0.02822,0.0565 v 0.18344 c 0,0.0141 0.0047,0.0235 0.01411,0.0282 0.0094,0.005 0.01881,-3e-5 0.02822,-0.0141 0.188149,-0.22578 0.446853,-0.33867 0.776112,-0.33867 z m 1.587502,5.06589 c -0.01411,0 -0.02587,-0.009 -0.03528,-0.0282 -0.0094,-0.0141 -0.01411,-0.033 -0.01411,-0.0565 v -0.508 c 0,-0.0565 0.02587,-0.0847 0.07761,-0.0847 0.174037,-0.005 0.310445,-0.0258 0.409223,-0.0635 0.09878,-0.0329 0.17874,-0.10114 0.239889,-0.20461 0.06115,-0.0988 0.110535,-0.2446 0.148166,-0.43745 0.0047,-0.009 0.0047,-0.0235 0,-0.0423 l -1.023056,-3.49251 -0.0071,-0.0282 c 0,-0.047 0.02587,-0.0705 0.07761,-0.0705 h 0.6985 c 0.04704,0 0.07761,0.0235 0.09172,0.0705 l 0.564444,2.413 c 0.0047,0.0188 0.01179,0.0282 0.02117,0.0282 0.0094,0 0.01646,-0.009 0.02117,-0.0282 l 0.564445,-2.40594 c 0.01411,-0.0517 0.04469,-0.0776 0.09172,-0.0776 l 0.684388,0.007 c 0.0282,0 0.047,0.009 0.0564,0.0282 0.0141,0.0141 0.0188,0.0353 0.0141,0.0635 l -1.093605,3.71123 c -0.103481,0.33396 -0.209315,0.58326 -0.3175,0.74789 -0.103482,0.16463 -0.249297,0.28222 -0.437445,0.35278 -0.183445,0.0705 -0.446852,0.10583 -0.790223,0.10583 z m 4.550839,-1.40406 c -0.0235,0 -0.0447,-0.007 -0.0635,-0.0212 -0.0141,-0.0188 -0.0212,-0.04 -0.0212,-0.0635 v -4.76956 c 0,-0.0235 0.007,-0.0423 0.0212,-0.0564 0.0188,-0.0188 0.04,-0.0282 0.0635,-0.0282 h 1.4605 c 0.45626,0 0.8208,0.127 1.09361,0.381 0.27752,0.254 0.41628,0.59267 0.41628,1.016 v 2.14489 c 0,0.42333 -0.13876,0.762 -0.41628,1.016 -0.27281,0.254 -0.63735,0.381 -1.09361,0.381 z m 0.73378,-0.74083 c 0,0.0235 0.0118,0.0353 0.0353,0.0353 l 0.6985,-0.007 c 0.20226,0 0.36454,-0.0682 0.48684,-0.20461 0.12229,-0.14111 0.18814,-0.33161 0.19755,-0.5715 v -1.96145 c 0,-0.23989 -0.0635,-0.43039 -0.1905,-0.5715 -0.12229,-0.14111 -0.28692,-0.21166 -0.49389,-0.21166 h -0.6985 c -0.0235,0 -0.0353,0.0118 -0.0353,0.0353 z m 4.13455,-2.921 c 0.26811,0 0.50565,0.0517 0.71261,0.15522 0.20697,0.0988 0.36689,0.23754 0.47978,0.41628 0.11759,0.17874 0.17639,0.38335 0.17639,0.61383 v 2.39184 c 0,0.0235 -0.009,0.0447 -0.0282,0.0635 -0.0141,0.0141 -0.0329,0.0212 -0.0564,0.0212 h -0.64911 c -0.0235,0 -0.0447,-0.007 -0.0635,-0.0212 -0.0141,-0.0188 -0.0212,-0.04 -0.0212,-0.0635 v -0.17639 c 0,-0.0141 -0.005,-0.0235 -0.0141,-0.0282 -0.009,-0.005 -0.0188,-0.002 -0.0282,0.007 -0.19755,0.22578 -0.48213,0.33867 -0.85372,0.33867 -0.31045,0 -0.57386,-0.0823 -0.79023,-0.24695 -0.21637,-0.16933 -0.32455,-0.44215 -0.32455,-0.81844 0,-0.39511 0.12465,-0.6891 0.37394,-0.88195 0.254,-0.19285 0.60208,-0.28927 1.04423,-0.28927 h 0.55738 c 0.0235,0 0.0353,-0.0118 0.0353,-0.0353 v -0.17639 c 0,-0.17404 -0.0494,-0.31045 -0.14816,-0.40922 -0.0941,-0.10349 -0.22579,-0.15523 -0.39512,-0.15523 -0.13641,0 -0.24929,0.0329 -0.33866,0.0988 -0.0847,0.0611 -0.13876,0.1458 -0.16228,0.254 -0.0141,0.0517 -0.0471,0.0776 -0.0988,0.0776 l -0.68439,-0.0423 c -0.0235,0 -0.0447,-0.007 -0.0635,-0.0212 -0.0141,-0.0188 -0.0188,-0.0376 -0.0141,-0.0564 0.0282,-0.30104 0.16696,-0.54563 0.41628,-0.73378 0.254,-0.18815 0.5668,-0.28222 0.93839,-0.28222 z m -0.13406,3.05506 c 0.18345,0 0.34337,-0.0517 0.47978,-0.15523 0.13641,-0.10818 0.20461,-0.24929 0.20461,-0.42333 v -0.36689 c 0,-0.0235 -0.0118,-0.0353 -0.0353,-0.0353 h -0.47272 c -0.20696,0 -0.37159,0.0447 -0.49389,0.13406 -0.11759,0.0894 -0.17639,0.21872 -0.17639,0.38805 0,0.15052 0.0447,0.26576 0.13406,0.34573 0.0941,0.0753 0.21402,0.11289 0.35983,0.11289 z m 1.97557,2.01083 c -0.0141,0 -0.0259,-0.009 -0.0353,-0.0282 -0.009,-0.0141 -0.0141,-0.033 -0.0141,-0.0565 v -0.508 c 0,-0.0565 0.0259,-0.0847 0.0776,-0.0847 0.17403,-0.005 0.31044,-0.0258 0.40922,-0.0635 0.0988,-0.0329 0.17874,-0.10114 0.23989,-0.20461 0.0611,-0.0988 0.11052,-0.2446 0.14817,-0.43745 0.005,-0.009 0.005,-0.0235 0,-0.0423 l -1.02306,-3.49251 -0.007,-0.0282 c 0,-0.047 0.0259,-0.0705 0.0776,-0.0705 h 0.6985 c 0.0471,0 0.0776,0.0235 0.0917,0.0705 l 0.56444,2.413 c 0.005,0.0188 0.0117,0.0282 0.0212,0.0282 0.009,0 0.0165,-0.009 0.0212,-0.0282 l 0.56444,-2.40594 c 0.0141,-0.0517 0.0447,-0.0776 0.0917,-0.0776 l 0.68439,0.007 c 0.0282,0 0.047,0.009 0.0564,0.0282 0.0141,0.0141 0.0188,0.0353 0.0141,0.0635 l -1.09361,3.71123 c -0.10348,0.33396 -0.20931,0.58326 -0.3175,0.74789 -0.10349,0.16463 -0.2493,0.28222 -0.43745,0.35278 -0.18344,0.0705 -0.44685,0.10583 -0.79022,0.10583 z m 4.14866,-1.36172 c -0.40923,0 -0.73614,-0.0917 -0.98073,-0.27517 -0.24459,-0.18345 -0.36689,-0.42334 -0.36689,-0.71967 v -0.0564 c 0,-0.0235 0.007,-0.0423 0.0212,-0.0564 0.0188,-0.0188 0.04,-0.0282 0.0635,-0.0282 h 0.61383 c 0.0235,0 0.0423,0.009 0.0564,0.0282 0.0188,0.0141 0.0282,0.0329 0.0282,0.0564 v 0.0212 c 0,0.11289 0.0541,0.21166 0.16228,0.29633 0.10819,0.08 0.24224,0.11994 0.40217,0.11994 0.15522,0 0.27987,-0.0376 0.37394,-0.11289 0.0988,-0.0753 0.14817,-0.16933 0.14817,-0.28222 0,-0.11289 -0.0494,-0.1999 -0.14817,-0.26105 -0.0941,-0.0611 -0.24224,-0.12699 -0.4445,-0.19756 l -0.18344,-0.0635 c -0.31985,-0.10348 -0.57621,-0.23283 -0.76906,-0.38806 -0.19285,-0.15992 -0.28928,-0.3951 -0.28928,-0.70555 0,-0.32926 0.11759,-0.58796 0.35278,-0.77611 0.23519,-0.19285 0.54563,-0.28928 0.93133,-0.28928 0.39982,0 0.71732,0.0988 0.9525,0.29633 0.23989,0.19285 0.35984,0.45156 0.35984,0.77611 v 0.007 c 0,0.0235 -0.009,0.0447 -0.0282,0.0635 -0.0141,0.0141 -0.0329,0.0212 -0.0564,0.0212 h -0.59267 c -0.0235,0 -0.0447,-0.007 -0.0635,-0.0212 -0.0141,-0.0188 -0.0212,-0.04 -0.0212,-0.0635 v -0.0282 c 0,-0.11759 -0.0494,-0.21402 -0.14817,-0.28928 -0.0988,-0.08 -0.22813,-0.11994 -0.38806,-0.11994 -0.15522,0 -0.27987,0.0376 -0.37394,0.11288 -0.0941,0.0706 -0.14111,0.16228 -0.14111,0.27517 0,0.0894 0.0329,0.16463 0.0988,0.22578 0.0659,0.0565 0.13877,0.10115 0.21872,0.13405 0.0847,0.0329 0.23048,0.0847 0.43744,0.15523 0.22107,0.0753 0.40687,0.15287 0.55739,0.23283 0.15523,0.08 0.28693,0.1905 0.39511,0.33161 0.10819,0.14111 0.16228,0.31985 0.16228,0.53622 0,0.32456 -0.1223,0.58091 -0.36689,0.76906 -0.23989,0.18345 -0.56444,0.27517 -0.97366,0.27517 z m 5.63739,0.0141 c -0.47978,0 -0.91487,-0.11054 -1.30528,-0.33161 -0.38571,-0.22107 -0.6891,-0.52446 -0.91017,-0.91017 -0.22107,-0.38571 -0.33161,-0.81845 -0.33161,-1.29822 0,-0.47037 0.11054,-0.89606 0.33161,-1.27706 0.22107,-0.38571 0.52446,-0.68674 0.91017,-0.90311 0.39041,-0.22107 0.8255,-0.33161 1.30528,-0.33161 0.48448,0 0.91957,0.11054 1.30528,0.33161 0.39041,0.21637 0.69615,0.5174 0.91722,0.90311 0.22107,0.381 0.33161,0.80669 0.33161,1.27706 0,0.47977 -0.11054,0.91251 -0.33161,1.29822 -0.22107,0.38571 -0.52681,0.6891 -0.91722,0.91017 -0.38571,0.22107 -0.8208,0.33161 -1.30528,0.33161 z m 0,-0.508 c 0.381,0 0.72672,-0.087 1.03717,-0.26106 0.31044,-0.17874 0.55268,-0.42333 0.72672,-0.73378 0.17874,-0.31044 0.26811,-0.65616 0.26811,-1.03716 0,-0.37159 -0.0894,-0.71026 -0.26811,-1.016 -0.17404,-0.30575 -0.41628,-0.54564 -0.72672,-0.71967 -0.31045,-0.17874 -0.65617,-0.26811 -1.03717,-0.26811 -0.381,0 -0.72672,0.0894 -1.03717,0.26811 -0.30574,0.17403 -0.54798,0.41392 -0.72672,0.71967 -0.17404,0.30103 -0.26106,0.6397 -0.26106,1.016 0,0.381 0.087,0.72672 0.26106,1.03716 0.17874,0.31045 0.42098,0.55504 0.72672,0.73378 0.31045,0.17404 0.65617,0.26106 1.03717,0.26106 z m 0.0141,-0.79728 c -0.23048,0 -0.41392,-0.0635 -0.55033,-0.1905 -0.13641,-0.127 -0.20462,-0.29869 -0.20462,-0.51506 v -1.03011 c 0,-0.21637 0.0682,-0.3857 0.20462,-0.508 0.13641,-0.127 0.31985,-0.1905 0.55033,-0.1905 0.22578,0 0.40687,0.0611 0.54328,0.18345 0.14111,0.12229 0.21166,0.28927 0.21166,0.50094 0,0.0517 -0.0282,0.0776 -0.0847,0.0776 l -0.28222,0.0141 c -0.0565,0 -0.0847,-0.0282 -0.0847,-0.0847 v -0.0212 c 0,-0.0847 -0.0282,-0.15287 -0.0847,-0.20461 -0.0565,-0.0565 -0.12937,-0.0847 -0.21872,-0.0847 -0.0941,0 -0.16933,0.0282 -0.22578,0.0847 -0.0565,0.0517 -0.0847,0.11994 -0.0847,0.20461 v 1.09361 c 0,0.0847 0.0282,0.15522 0.0847,0.21167 0.0611,0.0517 0.13639,0.0776 0.22578,0.0776 0.0894,0 0.16228,-0.0259 0.21872,-0.0776 0.0565,-0.0565 0.0847,-0.12702 0.0847,-0.21167 v -0.0212 c 0,-0.0235 0.007,-0.0423 0.0212,-0.0564 0.0188,-0.0188 0.04,-0.0282 0.0635,-0.0282 l 0.28222,0.0141 c 0.0565,0 0.0847,0.0259 0.0847,0.0776 0,0.20697 -0.0705,0.37395 -0.21166,0.50095 -0.13641,0.12229 -0.3175,0.18344 -0.54328,0.18344 z m 6.223,-3.69711 c 0.27282,0 0.51271,0.0611 0.71967,0.18344 0.21167,0.1223 0.37394,0.29634 0.48683,0.52211 0.11759,0.22107 0.17639,0.47507 0.17639,0.762 0,0.28223 -0.0588,0.53152 -0.17639,0.74789 -0.11289,0.21637 -0.27516,0.38571 -0.48683,0.508 -0.20696,0.11759 -0.4445,0.17639 -0.71261,0.17639 h -0.86783 c -0.0235,0 -0.0353,0.0118 -0.0353,0.0353 v 1.92617 c 0,0.0235 -0.009,0.0447 -0.0282,0.0635 -0.0141,0.0141 -0.0329,0.0212 -0.0564,0.0212 h -0.64911 c -0.0235,0 -0.0447,-0.007 -0.0635,-0.0212 -0.0141,-0.0188 -0.0212,-0.04 -0.0212,-0.0635 v -4.77662 c 0,-0.0235 0.007,-0.0423 0.0212,-0.0564 0.0188,-0.0188 0.04,-0.0282 0.0635,-0.0282 z m -0.11994,2.24366 c 0.20696,0 0.37159,-0.0682 0.49389,-0.20461 0.127,-0.14111 0.1905,-0.3269 0.1905,-0.55739 0,-0.23518 -0.0635,-0.42333 -0.1905,-0.56444 -0.1223,-0.14111 -0.28693,-0.21167 -0.49389,-0.21167 h -0.74083 c -0.0235,0 -0.0353,0.0118 -0.0353,0.0353 v 1.46756 c 0,0.0235 0.0118,0.0353 0.0353,0.0353 z m 3.84529,-0.81844 c 0,-0.0235 0.007,-0.0424 0.0212,-0.0565 0.0188,-0.0188 0.04,-0.0282 0.0635,-0.0282 h 0.64912 c 0.0235,0 0.0423,0.009 0.0564,0.0282 0.0188,0.0141 0.0282,0.033 0.0282,0.0565 v 3.43606 c 0,0.0235 -0.009,0.0447 -0.0282,0.0635 -0.0141,0.0141 -0.0329,0.0212 -0.0564,0.0212 h -0.64912 c -0.0235,0 -0.0447,-0.007 -0.0635,-0.0212 -0.0141,-0.0188 -0.0212,-0.04 -0.0212,-0.0635 v -0.1905 c 0,-0.0141 -0.005,-0.0212 -0.0141,-0.0212 -0.009,-0.005 -0.0188,3e-5 -0.0282,0.0141 -0.15992,0.22107 -0.41157,0.33161 -0.75494,0.33161 -0.31985,0 -0.58561,-0.0941 -0.79728,-0.28222 -0.21167,-0.19285 -0.3175,-0.47272 -0.3175,-0.83961 v -2.44828 c 0,-0.0235 0.007,-0.0424 0.0212,-0.0565 0.0188,-0.0188 0.04,-0.0282 0.0635,-0.0282 h 0.64911 c 0.0235,0 0.0423,0.009 0.0564,0.0282 0.0188,0.0141 0.0282,0.033 0.0282,0.0565 v 2.24367 c 0,0.19755 0.0447,0.35277 0.13405,0.46566 0.0941,0.10819 0.22813,0.16228 0.40217,0.16228 0.17403,0 0.31044,-0.0564 0.40922,-0.16933 0.0988,-0.11759 0.14817,-0.27517 0.14817,-0.47272 z m 2.68817,3.56306 c -0.40923,0 -0.73613,-0.0917 -0.98072,-0.27517 -0.24459,-0.18345 -0.36689,-0.42334 -0.36689,-0.71967 v -0.0564 c 0,-0.0235 0.007,-0.0423 0.0212,-0.0564 0.0188,-0.0188 0.04,-0.0282 0.0635,-0.0282 h 0.61384 c 0.0235,0 0.0423,0.009 0.0564,0.0282 0.0188,0.0141 0.0282,0.0329 0.0282,0.0564 v 0.0212 c 0,0.11289 0.0541,0.21166 0.16228,0.29633 0.10819,0.08 0.24224,0.11994 0.40217,0.11994 0.15522,0 0.27987,-0.0376 0.37394,-0.11289 0.0988,-0.0753 0.14817,-0.16933 0.14817,-0.28222 0,-0.11289 -0.0494,-0.1999 -0.14817,-0.26105 -0.0941,-0.0611 -0.24224,-0.12699 -0.4445,-0.19756 l -0.18344,-0.0635 c -0.31985,-0.10348 -0.57621,-0.23283 -0.76906,-0.38806 -0.19285,-0.15992 -0.28928,-0.3951 -0.28928,-0.70555 0,-0.32926 0.11759,-0.58796 0.35278,-0.77611 0.23519,-0.19285 0.54563,-0.28928 0.93134,-0.28928 0.39981,0 0.71731,0.0988 0.9525,0.29633 0.23989,0.19285 0.35983,0.45156 0.35983,0.77611 v 0.007 c 0,0.0235 -0.009,0.0447 -0.0282,0.0635 -0.0141,0.0141 -0.0329,0.0212 -0.0564,0.0212 h -0.59266 c -0.0235,0 -0.0447,-0.007 -0.0635,-0.0212 -0.0141,-0.0188 -0.0212,-0.04 -0.0212,-0.0635 v -0.0282 c 0,-0.11759 -0.0494,-0.21402 -0.14817,-0.28928 -0.0988,-0.08 -0.22812,-0.11994 -0.38805,-0.11994 -0.15523,0 -0.27988,0.0376 -0.37395,0.11288 -0.0941,0.0706 -0.14111,0.16228 -0.14111,0.27517 0,0.0894 0.0329,0.16463 0.0988,0.22578 0.0659,0.0565 0.13877,0.10115 0.21872,0.13405 0.0847,0.0329 0.23048,0.0847 0.43745,0.15523 0.22107,0.0753 0.40687,0.15287 0.55739,0.23283 0.15522,0.08 0.28692,0.1905 0.39511,0.33161 0.10818,0.14111 0.16227,0.31985 0.16227,0.53622 0,0.32456 -0.12229,0.58091 -0.36688,0.76906 -0.23989,0.18345 -0.56445,0.27517 -0.97367,0.27517 z m 3.45722,-3.70417 c 0.34337,0 0.61148,0.10818 0.80433,0.32455 0.19285,0.21637 0.28928,0.51506 0.28928,0.89606 v 2.35656 c 0,0.0235 -0.009,0.0447 -0.0282,0.0635 -0.0141,0.0141 -0.0329,0.0212 -0.0564,0.0212 h -0.64911 c -0.0235,0 -0.0447,-0.007 -0.0635,-0.0212 -0.0141,-0.0188 -0.0212,-0.04 -0.0212,-0.0635 v -2.24367 c 0,-0.19285 -0.0494,-0.34572 -0.14816,-0.45861 -0.0941,-0.11289 -0.22343,-0.16934 -0.38806,-0.16934 -0.16933,0 -0.30574,0.0588 -0.40922,0.17639 -0.0988,0.11289 -0.14817,0.26576 -0.14817,0.45861 v 2.23662 c 0,0.0235 -0.009,0.0447 -0.0282,0.0635 -0.0141,0.0141 -0.0329,0.0212 -0.0564,0.0212 h -0.64911 c -0.0235,0 -0.0447,-0.007 -0.0635,-0.0212 -0.0141,-0.0188 -0.0212,-0.04 -0.0212,-0.0635 v -4.76956 c 0,-0.0235 0.007,-0.0423 0.0212,-0.0564 0.0188,-0.0188 0.04,-0.0282 0.0635,-0.0282 h 0.64911 c 0.0235,0 0.0423,0.009 0.0564,0.0282 0.0188,0.0141 0.0282,0.0329 0.0282,0.0564 v 1.51694 c 0,0.0141 0.005,0.0235 0.0141,0.0282 0.009,0.005 0.0188,-3e-5 0.0282,-0.0141 0.18815,-0.22578 0.44686,-0.33867 0.77612,-0.33867 z m 2.16605,-0.43745 c -0.14581,0 -0.26576,-0.047 -0.35983,-0.14111 -0.0894,-0.0941 -0.13406,-0.21402 -0.13406,-0.35983 0,-0.14581 0.0447,-0.26576 0.13406,-0.35983 0.0941,-0.0941 0.21402,-0.14112 0.35983,-0.14112 0.15052,0 0.27046,0.047 0.35983,0.14112 0.0941,0.0894 0.14112,0.20931 0.14112,0.35983 0,0.14581 -0.047,0.26576 -0.14112,0.35983 -0.0941,0.0941 -0.21402,0.14111 -0.35983,0.14111 z m -0.32456,4.09928 c -0.0235,0 -0.0447,-0.007 -0.0635,-0.0212 -0.0141,-0.0188 -0.0212,-0.04 -0.0212,-0.0635 v -3.44312 c 0,-0.0235 0.007,-0.0423 0.0212,-0.0564 0.0188,-0.0188 0.04,-0.0282 0.0635,-0.0282 h 0.64912 c 0.0235,0 0.0423,0.009 0.0564,0.0282 0.0188,0.0141 0.0282,0.0329 0.0282,0.0564 v 3.44312 c 0,0.0235 -0.009,0.0447 -0.0282,0.0635 -0.0141,0.0141 -0.0329,0.0212 -0.0564,0.0212 z m 3.06918,-3.66183 c 0.34337,0 0.61148,0.10818 0.80433,0.32455 0.19285,0.21637 0.28928,0.51506 0.28928,0.89606 v 2.35656 c 0,0.0235 -0.009,0.0447 -0.0282,0.0635 -0.0141,0.0141 -0.033,0.0212 -0.0565,0.0212 h -0.64911 c -0.0235,0 -0.0447,-0.007 -0.0635,-0.0212 -0.0141,-0.0188 -0.0212,-0.04 -0.0212,-0.0635 v -2.24367 c 0,-0.19285 -0.0494,-0.34572 -0.14816,-0.45861 -0.0941,-0.11289 -0.22343,-0.16934 -0.38806,-0.16934 -0.16933,0 -0.30574,0.0588 -0.40922,0.17639 -0.0988,0.11289 -0.14817,0.26576 -0.14817,0.45861 v 2.23662 c 0,0.0235 -0.009,0.0447 -0.0282,0.0635 -0.0141,0.0141 -0.0329,0.0212 -0.0564,0.0212 h -0.64912 c -0.0235,0 -0.0447,-0.007 -0.0635,-0.0212 -0.0141,-0.0188 -0.0212,-0.04 -0.0212,-0.0635 v -3.43606 c 0,-0.0235 0.007,-0.0424 0.0212,-0.0565 0.0188,-0.0188 0.04,-0.0282 0.0635,-0.0282 h 0.64912 c 0.0235,0 0.0423,0.009 0.0564,0.0282 0.0188,0.0141 0.0282,0.033 0.0282,0.0565 v 0.18344 c 0,0.0141 0.005,0.0235 0.0141,0.0282 0.009,0.005 0.0188,-3e-5 0.0282,-0.0141 0.18815,-0.22578 0.44685,-0.33867 0.77611,-0.33867 z m 3.6336,0.14111 c 0,-0.0235 0.007,-0.0424 0.0212,-0.0565 0.0188,-0.0188 0.04,-0.0282 0.0635,-0.0282 h 0.64911 c 0.0235,0 0.0424,0.009 0.0565,0.0282 0.0188,0.0141 0.0282,0.033 0.0282,0.0565 v 3.33022 c 0,0.54563 -0.14817,0.95015 -0.4445,1.21356 -0.29633,0.26811 -0.72437,0.40217 -1.28411,0.40217 -0.0659,0 -0.16935,-0.005 -0.31045,-0.0141 -0.0565,-0.005 -0.0847,-0.0352 -0.0847,-0.0917 l 0.0212,-0.56444 c 0,-0.0565 0.0306,-0.0823 0.0917,-0.0776 0.0471,0.005 0.11762,0.007 0.21167,0.007 0.35278,0 0.60443,-0.0729 0.75495,-0.21872 0.15051,-0.14581 0.22577,-0.381 0.22577,-0.70556 v -0.0635 c 0,-0.0141 -0.005,-0.0235 -0.0141,-0.0282 -0.009,-0.005 -0.0188,3e-5 -0.0282,0.0141 -0.17874,0.20697 -0.42568,0.31045 -0.74083,0.31045 -0.30574,0 -0.56444,-0.0894 -0.77611,-0.26811 -0.21167,-0.18345 -0.34337,-0.44215 -0.39512,-0.77611 -0.0282,-0.14111 -0.0423,-0.39512 -0.0423,-0.76201 0,-0.39041 0.0188,-0.65852 0.0564,-0.80433 0.047,-0.31985 0.16929,-0.57385 0.36688,-0.762 0.19756,-0.18815 0.45156,-0.28222 0.762,-0.28222 0.32456,0 0.58091,0.10583 0.76906,0.3175 0.009,0.009 0.0188,0.0141 0.0282,0.0141 0.009,-0.005 0.0141,-0.0141 0.0141,-0.0282 z m -0.0212,2.32128 c 0.0141,-0.17874 0.0212,-0.38335 0.0212,-0.61384 0,-0.26811 -0.009,-0.47977 -0.0282,-0.635 -0.0188,-0.15051 -0.0776,-0.27281 -0.17639,-0.36688 -0.0988,-0.0941 -0.22342,-0.14112 -0.37394,-0.14112 -0.15052,0 -0.27517,0.047 -0.37395,0.14112 -0.0988,0.0941 -0.15992,0.21637 -0.18344,0.36688 -0.0282,0.17404 -0.0423,0.38571 -0.0423,0.635 0,0.23049 0.0118,0.4351 0.0353,0.61384 0.0235,0.15052 0.087,0.27282 0.1905,0.36689 0.10349,0.0941 0.23049,0.14111 0.381,0.14111 0.15523,0 0.27988,-0.047 0.37395,-0.14111 0.0988,-0.0941 0.15758,-0.21637 0.17639,-0.36689 z m 4.47323,-1.86972 c 0,0.0235 -0.009,0.0447 -0.0282,0.0635 -0.0141,0.0141 -0.0329,0.0212 -0.0564,0.0212 h -0.5715 c -0.0235,0 -0.0353,0.0118 -0.0353,0.0353 v 1.77095 c 0,0.17403 0.0329,0.29868 0.0988,0.37394 0.0705,0.0705 0.17874,0.10349 0.32456,0.0988 h 0.127 c 0.0235,0 0.0423,0.009 0.0564,0.0282 0.0188,0.0141 0.0282,0.0329 0.0282,0.0564 v 0.53623 c 0,0.0517 -0.0282,0.0823 -0.0847,0.0917 h -0.29634 c -0.34807,0 -0.60913,-0.0611 -0.78317,-0.18345 -0.17403,-0.12229 -0.26105,-0.35277 -0.26105,-0.69144 v -2.08139 c 0,-0.0235 -0.0118,-0.0353 -0.0353,-0.0353 h -0.32455 c -0.0235,0 -0.0447,-0.007 -0.0635,-0.0212 -0.0141,-0.0188 -0.0212,-0.04 -0.0212,-0.0635 v -0.45156 c 0,-0.0235 0.007,-0.0424 0.0212,-0.0565 0.0188,-0.0188 0.04,-0.0282 0.0635,-0.0282 h 0.32455 c 0.0235,0 0.0353,-0.0118 0.0353,-0.0353 v -0.80433 c 0,-0.0235 0.007,-0.0423 0.0212,-0.0564 0.0188,-0.0188 0.04,-0.0282 0.0635,-0.0282 h 0.62088 c 0.0235,0 0.0424,0.009 0.0565,0.0282 0.0188,0.0141 0.0282,0.0329 0.0282,0.0564 v 0.80433 c 0,0.0235 0.0118,0.0353 0.0353,0.0353 h 0.5715 c 0.0235,0 0.0423,0.009 0.0564,0.0282 0.0188,0.0141 0.0282,0.033 0.0282,0.0565 z m 2.13783,-0.59267 c 0.34337,0 0.61148,0.10818 0.80433,0.32455 0.19285,0.21637 0.28928,0.51506 0.28928,0.89606 v 2.35656 c 0,0.0235 -0.009,0.0447 -0.0282,0.0635 -0.0141,0.0141 -0.033,0.0212 -0.0565,0.0212 h -0.64911 c -0.0235,0 -0.0447,-0.007 -0.0635,-0.0212 -0.0141,-0.0188 -0.0212,-0.04 -0.0212,-0.0635 v -2.24367 c 0,-0.19285 -0.0494,-0.34572 -0.14816,-0.45861 -0.0941,-0.11289 -0.22343,-0.16934 -0.38806,-0.16934 -0.16933,0 -0.30574,0.0588 -0.40922,0.17639 -0.0988,0.11289 -0.14817,0.26576 -0.14817,0.45861 v 2.23662 c 0,0.0235 -0.009,0.0447 -0.0282,0.0635 -0.0141,0.0141 -0.033,0.0212 -0.0565,0.0212 h -0.64911 c -0.0235,0 -0.0447,-0.007 -0.0635,-0.0212 -0.0141,-0.0188 -0.0212,-0.04 -0.0212,-0.0635 v -4.76956 c 0,-0.0235 0.007,-0.0423 0.0212,-0.0564 0.0188,-0.0188 0.04,-0.0282 0.0635,-0.0282 h 0.64911 c 0.0235,0 0.0424,0.009 0.0565,0.0282 0.0188,0.0141 0.0282,0.0329 0.0282,0.0564 v 1.51694 c 0,0.0141 0.005,0.0235 0.0141,0.0282 0.009,0.005 0.0188,-3e-5 0.0282,-0.0141 0.18815,-0.22578 0.44686,-0.33867 0.77612,-0.33867 z m 4.45204,1.25589 c 0.0141,0.15522 0.0212,0.33396 0.0212,0.53622 l -0.007,0.30339 c 0,0.0565 -0.0282,0.0847 -0.0847,0.0847 h -1.89089 c -0.0235,0 -0.0353,0.0118 -0.0353,0.0353 0.009,0.13171 0.0188,0.22813 0.0282,0.28928 0.0235,0.15523 0.0894,0.27988 0.19756,0.37395 0.10818,0.0941 0.24459,0.14111 0.40922,0.14111 0.14111,-0.005 0.25871,-0.04 0.35278,-0.10584 0.0988,-0.0659 0.17403,-0.15759 0.22577,-0.27516 0.0235,-0.0517 0.0588,-0.0706 0.10584,-0.0565 l 0.57855,0.11995 c 0.0565,0.0188 0.0753,0.0541 0.0565,0.10583 -0.0941,0.29163 -0.25635,0.51741 -0.48684,0.67733 -0.22577,0.15523 -0.50329,0.23284 -0.83255,0.23284 -0.39041,0 -0.7032,-0.0941 -0.93839,-0.28222 -0.23519,-0.18815 -0.38806,-0.44921 -0.45861,-0.78317 -0.0235,-0.127 -0.04,-0.26106 -0.0494,-0.40217 -0.005,-0.14111 -0.007,-0.32925 -0.007,-0.56444 0,-0.24459 0.0118,-0.43039 0.0353,-0.55739 0.0471,-0.34337 0.19288,-0.61619 0.43745,-0.81845 0.24459,-0.20696 0.55503,-0.31044 0.93133,-0.31044 0.40922,0 0.73848,0.11524 0.98778,0.34572 0.254,0.23048 0.39511,0.53387 0.42333,0.91017 z m -1.40405,-0.55034 c -0.15523,0 -0.28458,0.047 -0.38806,0.14112 -0.0988,0.0894 -0.15993,0.21166 -0.18345,0.36688 -0.0141,0.10349 -0.0212,0.22108 -0.0212,0.35278 0,0.0235 0.0118,0.0353 0.0353,0.0353 h 1.12183 c 0.0235,0 0.0353,-0.0118 0.0353,-0.0353 -0.009,-0.15993 -0.0188,-0.27517 -0.0282,-0.34572 -0.0188,-0.15522 -0.0799,-0.27987 -0.18345,-0.37394 -0.10348,-0.0941 -0.23283,-0.14112 -0.38805,-0.14112 z m 4.79073,3.01273 c -0.30575,0 -0.57621,-0.0611 -0.81139,-0.18345 -0.23519,-0.127 -0.41863,-0.30339 -0.55034,-0.52916 -0.127,-0.22578 -0.1905,-0.48684 -0.1905,-0.78317 v -2.07434 c 0,-0.29633 0.0635,-0.55504 0.1905,-0.77611 0.13171,-0.22577 0.31515,-0.39981 0.55034,-0.52211 0.23518,-0.12229 0.50564,-0.18344 0.81139,-0.18344 0.30574,0 0.5762,0.0611 0.81139,0.18344 0.23518,0.11759 0.41627,0.28693 0.54327,0.508 0.13171,0.21637 0.19756,0.47037 0.19756,0.762 v 0.0423 c 0,0.0235 -0.009,0.0447 -0.0282,0.0635 -0.0141,0.0188 -0.0329,0.0282 -0.0564,0.0282 l -0.65616,0.0282 c -0.0565,0 -0.0847,-0.0282 -0.0847,-0.0847 v -0.0847 c 0,-0.22107 -0.0682,-0.39982 -0.20461,-0.53623 -0.13171,-0.13641 -0.30574,-0.20461 -0.52211,-0.20461 -0.22108,0 -0.39982,0.0682 -0.53623,0.20461 -0.1317,0.13641 -0.19755,0.31516 -0.19755,0.53623 v 2.16605 c 0,0.22108 0.0659,0.39982 0.19755,0.53623 0.13641,0.1317 0.31515,0.19755 0.53623,0.19755 0.21637,0 0.3904,-0.0658 0.52211,-0.19755 0.13641,-0.13641 0.20461,-0.31515 0.20461,-0.53623 v -0.0917 c 0,-0.0517 0.0282,-0.0776 0.0847,-0.0776 l 0.65616,0.0282 c 0.0235,0 0.0423,0.009 0.0564,0.0282 0.0188,0.0141 0.0282,0.0329 0.0282,0.0564 v 0.0282 c 0,0.29163 -0.0659,0.55034 -0.19756,0.77611 -0.127,0.22107 -0.30809,0.39276 -0.54327,0.51506 -0.23519,0.11759 -0.50565,0.17639 -0.81139,0.17639 z m 3.45723,0 c -0.381,0 -0.6938,-0.10113 -0.93839,-0.30339 -0.24459,-0.20697 -0.39276,-0.48449 -0.4445,-0.83256 -0.0376,-0.22577 -0.0564,-0.46801 -0.0564,-0.72672 0,-0.26811 0.0188,-0.51506 0.0564,-0.74083 0.0517,-0.34337 0.20225,-0.61384 0.45155,-0.81139 0.2493,-0.20226 0.5621,-0.30339 0.93839,-0.30339 0.37159,0 0.67969,0.10113 0.92428,0.30339 0.24459,0.19755 0.39276,0.46566 0.4445,0.80433 0.0376,0.23519 0.0564,0.48213 0.0564,0.74083 0,0.28223 -0.0165,0.52447 -0.0494,0.72673 -0.0517,0.35277 -0.1999,0.63264 -0.4445,0.83961 -0.24459,0.20226 -0.55739,0.30339 -0.93839,0.30339 z m 0,-0.70556 c 0.15522,0 0.28457,-0.0517 0.38805,-0.15522 0.10819,-0.10348 0.17404,-0.23989 0.19756,-0.40922 0.0188,-0.24459 0.0282,-0.44215 0.0282,-0.59267 0,-0.15522 -0.009,-0.35513 -0.0282,-0.59972 -0.0235,-0.16933 -0.0894,-0.30339 -0.19756,-0.40217 -0.10348,-0.0988 -0.23283,-0.14817 -0.38805,-0.14817 -0.15993,0 -0.29163,0.0494 -0.39511,0.14817 -0.10349,0.0988 -0.16699,0.23284 -0.19051,0.40217 -0.0188,0.16463 -0.0282,0.36453 -0.0282,0.59972 0,0.23989 0.009,0.43744 0.0282,0.59267 0.0235,0.16933 0.087,0.30574 0.19051,0.40922 0.10348,0.10348 0.23518,0.15522 0.39511,0.15522 z m 5.50334,-3.01272 c 0.33396,0 0.59031,0.10818 0.76905,0.32455 0.18345,0.21637 0.27517,0.51741 0.27517,0.90312 v 2.3495 c 0,0.0235 -0.009,0.0447 -0.0282,0.0635 -0.0141,0.0141 -0.0329,0.0212 -0.0564,0.0212 h -0.64205 c -0.0235,0 -0.0447,-0.007 -0.0635,-0.0212 -0.0141,-0.0188 -0.0212,-0.04 -0.0212,-0.0635 v -2.23662 c 0,-0.19755 -0.047,-0.35277 -0.14111,-0.46566 -0.0941,-0.11289 -0.21872,-0.16934 -0.37395,-0.16934 -0.16463,0 -0.29633,0.0565 -0.39511,0.16934 -0.0941,0.11289 -0.14111,0.26576 -0.14111,0.45861 v 2.24367 c 0,0.0235 -0.009,0.0447 -0.0282,0.0635 -0.0141,0.0141 -0.0329,0.0212 -0.0564,0.0212 h -0.64912 c -0.0235,0 -0.0447,-0.007 -0.0635,-0.0212 -0.0141,-0.0188 -0.0212,-0.04 -0.0212,-0.0635 v -2.23662 c 0,-0.19755 -0.047,-0.35277 -0.14111,-0.46566 -0.0941,-0.11289 -0.21873,-0.16934 -0.37395,-0.16934 -0.16463,0 -0.29633,0.0565 -0.39511,0.16934 -0.0941,0.11289 -0.14111,0.26576 -0.14111,0.45861 v 2.24367 c 0,0.0235 -0.009,0.0447 -0.0282,0.0635 -0.0141,0.0141 -0.0329,0.0212 -0.0564,0.0212 h -0.64205 c -0.0235,0 -0.0447,-0.007 -0.0635,-0.0212 -0.0141,-0.0188 -0.0212,-0.04 -0.0212,-0.0635 v -3.43606 c 0,-0.0235 0.007,-0.0424 0.0212,-0.0565 0.0188,-0.0188 0.04,-0.0282 0.0635,-0.0282 h 0.64205 c 0.0235,0 0.0423,0.009 0.0564,0.0282 0.0188,0.0141 0.0282,0.033 0.0282,0.0565 v 0.17639 c 0,0.0141 0.005,0.0235 0.0141,0.0282 0.009,0 0.0188,-0.005 0.0282,-0.0141 0.19285,-0.22107 0.45391,-0.33161 0.78317,-0.33161 0.20696,0 0.3857,0.0447 0.53622,0.13405 0.15052,0.0847 0.26811,0.20696 0.35278,0.36689 0.009,0.009 0.0188,0.0141 0.0282,0.0141 0.009,0 0.0165,-0.009 0.0212,-0.0282 0.10819,-0.16933 0.24224,-0.29163 0.40217,-0.36689 0.16463,-0.08 0.33866,-0.11994 0.52211,-0.11994 z m 3.33727,0.0564 c 0.0235,0 0.0424,0.009 0.0565,0.0282 0.0188,0.0141 0.0282,0.033 0.0282,0.0565 v 0.47978 c 0,0.0235 -0.009,0.0447 -0.0282,0.0635 -0.0141,0.0141 -0.033,0.0212 -0.0565,0.0212 h -0.5715 c -0.0235,0 -0.0353,0.0118 -0.0353,0.0353 v 2.83634 c 0,0.0235 -0.009,0.0447 -0.0282,0.0635 -0.0141,0.0141 -0.0329,0.0212 -0.0564,0.0212 h -0.64206 c -0.0235,0 -0.0447,-0.007 -0.0635,-0.0212 -0.0141,-0.0188 -0.0212,-0.04 -0.0212,-0.0635 v -2.83634 c 0,-0.0235 -0.0118,-0.0353 -0.0353,-0.0353 h -0.33867 c -0.0235,0 -0.0447,-0.007 -0.0635,-0.0212 -0.0141,-0.0188 -0.0212,-0.04 -0.0212,-0.0635 v -0.47978 c 0,-0.0235 0.007,-0.0424 0.0212,-0.0565 0.0188,-0.0188 0.04,-0.0282 0.0635,-0.0282 h 0.33867 c 0.0235,0 0.0353,-0.0118 0.0353,-0.0353 v -0.15522 c 0,-0.29633 0.04,-0.52681 0.11995,-0.69144 0.0847,-0.16933 0.21637,-0.28928 0.39511,-0.35984 0.18345,-0.0752 0.42804,-0.11053 0.73378,-0.10583 h 0.14817 c 0.0235,0 0.0423,0.009 0.0564,0.0282 0.0188,0.0141 0.0282,0.033 0.0282,0.0565 v 0.48683 c 0,0.0235 -0.009,0.0447 -0.0282,0.0635 -0.0141,0.0141 -0.0329,0.0212 -0.0564,0.0212 h -0.11289 c -0.17404,0.005 -0.29634,0.0493 -0.36689,0.13405 -0.0706,0.08 -0.10584,0.21873 -0.10584,0.41628 v 0.10583 c 0,0.0235 0.0118,0.0353 0.0353,0.0353 z m 1.79211,3.66184 c -0.381,0 -0.69379,-0.10113 -0.93838,-0.30339 -0.24459,-0.20697 -0.39276,-0.48449 -0.4445,-0.83256 -0.0377,-0.22577 -0.0565,-0.46801 -0.0565,-0.72672 0,-0.26811 0.0188,-0.51506 0.0565,-0.74083 0.0517,-0.34337 0.20225,-0.61384 0.45155,-0.81139 0.2493,-0.20226 0.5621,-0.30339 0.93839,-0.30339 0.37159,0 0.67969,0.10113 0.92428,0.30339 0.24459,0.19755 0.39276,0.46566 0.4445,0.80433 0.0376,0.23519 0.0564,0.48213 0.0564,0.74083 0,0.28223 -0.0165,0.52447 -0.0494,0.72673 -0.0517,0.35277 -0.1999,0.63264 -0.4445,0.83961 -0.24459,0.20226 -0.55738,0.30339 -0.93839,0.30339 z m 0,-0.70556 c 0.15523,0 0.28458,-0.0517 0.38806,-0.15522 0.10819,-0.10348 0.17404,-0.23989 0.19756,-0.40922 0.0188,-0.24459 0.0282,-0.44215 0.0282,-0.59267 0,-0.15522 -0.009,-0.35513 -0.0282,-0.59972 -0.0235,-0.16933 -0.0894,-0.30339 -0.19756,-0.40217 -0.10348,-0.0988 -0.23283,-0.14817 -0.38806,-0.14817 -0.15992,0 -0.29162,0.0494 -0.39511,0.14817 -0.10348,0.0988 -0.16698,0.23284 -0.1905,0.40217 -0.0188,0.16463 -0.0282,0.36453 -0.0282,0.59972 0,0.23989 0.009,0.43744 0.0282,0.59267 0.0235,0.16933 0.087,0.30574 0.1905,0.40922 0.10349,0.10348 0.23519,0.15522 0.39511,0.15522 z m 3.56307,-2.99861 c 0.1317,0 0.24694,0.0282 0.34572,0.0847 0.0376,0.0188 0.0517,0.0541 0.0423,0.10583 l -0.11994,0.64206 c -0.005,0.0565 -0.0376,0.0729 -0.0988,0.0494 -0.0611,-0.0235 -0.13169,-0.0353 -0.21167,-0.0353 -0.0329,0 -0.0823,0.005 -0.14816,0.0141 -0.15993,0.0141 -0.29398,0.087 -0.40217,0.21872 -0.10348,0.13171 -0.15522,0.29634 -0.15522,0.49389 v 1.98967 c 0,0.0235 -0.009,0.0447 -0.0282,0.0635 -0.0141,0.0141 -0.0329,0.0212 -0.0564,0.0212 h -0.64911 c -0.0235,0 -0.0447,-0.007 -0.0635,-0.0212 -0.0141,-0.0188 -0.0212,-0.04 -0.0212,-0.0635 v -3.43606 c 0,-0.0235 0.007,-0.0424 0.0212,-0.0565 0.0188,-0.0188 0.04,-0.0282 0.0635,-0.0282 h 0.64911 c 0.0235,0 0.0423,0.009 0.0564,0.0282 0.0188,0.0141 0.0282,0.033 0.0282,0.0565 v 0.30339 c 0,0.0188 0.002,0.0306 0.007,0.0353 0.009,0 0.0188,-0.007 0.0282,-0.0212 0.16933,-0.29633 0.40687,-0.4445 0.71262,-0.4445 z m 2.48356,0.57856 c 0,0.0235 -0.009,0.0447 -0.0282,0.0635 -0.0141,0.0141 -0.0329,0.0212 -0.0564,0.0212 h -0.5715 c -0.0235,0 -0.0353,0.0118 -0.0353,0.0353 v 1.77095 c 0,0.17403 0.0329,0.29868 0.0988,0.37394 0.0706,0.0705 0.17875,0.10349 0.32456,0.0988 h 0.127 c 0.0235,0 0.0423,0.009 0.0564,0.0282 0.0188,0.0141 0.0282,0.0329 0.0282,0.0564 v 0.53623 c 0,0.0517 -0.0282,0.0823 -0.0847,0.0917 h -0.29634 c -0.34807,0 -0.60913,-0.0611 -0.78316,-0.18345 -0.17404,-0.12229 -0.26106,-0.35277 -0.26106,-0.69144 v -2.08139 c 0,-0.0235 -0.0118,-0.0353 -0.0353,-0.0353 h -0.32455 c -0.0235,0 -0.0447,-0.007 -0.0635,-0.0212 -0.0141,-0.0188 -0.0212,-0.04 -0.0212,-0.0635 v -0.45156 c 0,-0.0235 0.007,-0.0424 0.0212,-0.0565 0.0188,-0.0188 0.04,-0.0282 0.0635,-0.0282 h 0.32455 c 0.0235,0 0.0353,-0.0118 0.0353,-0.0353 v -0.80433 c 0,-0.0235 0.007,-0.0423 0.0212,-0.0564 0.0188,-0.0188 0.04,-0.0282 0.0635,-0.0282 h 0.62089 c 0.0235,0 0.0423,0.009 0.0564,0.0282 0.0188,0.0141 0.0282,0.0329 0.0282,0.0564 v 0.80433 c 0,0.0235 0.0118,0.0353 0.0353,0.0353 h 0.5715 c 0.0235,0 0.0423,0.009 0.0564,0.0282 0.0188,0.0141 0.0282,0.033 0.0282,0.0565 z m 1.72861,3.06916 c -0.0235,0 -0.0447,-0.007 -0.0635,-0.0212 -0.0141,-0.0188 -0.0212,-0.04 -0.0212,-0.0635 v -0.58561 c 0,-0.0377 0.009,-0.0729 0.0282,-0.10584 l 1.98261,-3.41489 c 0.0141,-0.0282 0.005,-0.0423 -0.0282,-0.0423 h -1.89794 c -0.0235,0 -0.0447,-0.007 -0.0635,-0.0212 -0.0141,-0.0188 -0.0212,-0.04 -0.0212,-0.0635 v -0.53622 c 0,-0.0235 0.007,-0.0423 0.0212,-0.0564 0.0188,-0.0188 0.04,-0.0282 0.0635,-0.0282 h 2.74461 c 0.0235,0 0.0423,0.009 0.0564,0.0282 0.0188,0.0141 0.0282,0.0329 0.0282,0.0564 v 0.58561 c 0,0.0376 -0.009,0.0729 -0.0282,0.10583 l -1.98261,3.41489 c -0.0141,0.0282 -0.005,0.0423 0.0282,0.0423 h 1.89795 c 0.0235,0 0.0423,0.009 0.0564,0.0282 0.0188,0.0141 0.0282,0.0329 0.0282,0.0564 v 0.53623 c 0,0.0235 -0.009,0.0447 -0.0282,0.0635 -0.0141,0.0141 -0.0329,0.0212 -0.0564,0.0212 z m 4.70606,0.0565 c -0.381,0 -0.6938,-0.10113 -0.93839,-0.30339 -0.24459,-0.20697 -0.39276,-0.48449 -0.4445,-0.83256 -0.0377,-0.22577 -0.0565,-0.46801 -0.0565,-0.72672 0,-0.26811 0.0188,-0.51506 0.0565,-0.74083 0.0517,-0.34337 0.20225,-0.61384 0.45155,-0.81139 0.2493,-0.20226 0.5621,-0.30339 0.93839,-0.30339 0.37159,0 0.67969,0.10113 0.92428,0.30339 0.24459,0.19755 0.39276,0.46566 0.4445,0.80433 0.0377,0.23519 0.0565,0.48213 0.0565,0.74083 0,0.28223 -0.0165,0.52447 -0.0494,0.72673 -0.0517,0.35277 -0.1999,0.63264 -0.4445,0.83961 -0.24459,0.20226 -0.55739,0.30339 -0.93839,0.30339 z m 0,-0.70556 c 0.15522,0 0.28457,-0.0517 0.38805,-0.15522 0.10819,-0.10348 0.17404,-0.23989 0.19756,-0.40922 0.0188,-0.24459 0.0282,-0.44215 0.0282,-0.59267 0,-0.15522 -0.009,-0.35513 -0.0282,-0.59972 -0.0235,-0.16933 -0.0894,-0.30339 -0.19756,-0.40217 -0.10348,-0.0988 -0.23283,-0.14817 -0.38805,-0.14817 -0.15993,0 -0.29163,0.0494 -0.39511,0.14817 -0.10349,0.0988 -0.16699,0.23284 -0.1905,0.40217 -0.0188,0.16463 -0.0282,0.36453 -0.0282,0.59972 0,0.23989 0.009,0.43744 0.0282,0.59267 0.0235,0.16933 0.087,0.30574 0.1905,0.40922 0.10348,0.10348 0.23518,0.15522 0.39511,0.15522 z m 3.64066,-3.01272 c 0.34337,0 0.61149,0.10818 0.80434,0.32455 0.19285,0.21637 0.28927,0.51506 0.28927,0.89606 v 2.35656 c 0,0.0235 -0.009,0.0447 -0.0282,0.0635 -0.0141,0.0141 -0.0329,0.0212 -0.0564,0.0212 h -0.64911 c -0.0235,0 -0.0447,-0.007 -0.0635,-0.0212 -0.0141,-0.0188 -0.0212,-0.04 -0.0212,-0.0635 v -2.24367 c 0,-0.19285 -0.0494,-0.34572 -0.14817,-0.45861 -0.0941,-0.11289 -0.22342,-0.16934 -0.38805,-0.16934 -0.16933,0 -0.30574,0.0588 -0.40923,0.17639 -0.0988,0.11289 -0.14816,0.26576 -0.14816,0.45861 v 2.23662 c 0,0.0235 -0.009,0.0447 -0.0282,0.0635 -0.0141,0.0141 -0.0329,0.0212 -0.0564,0.0212 h -0.64911 c -0.0235,0 -0.0447,-0.007 -0.0635,-0.0212 -0.0141,-0.0188 -0.0212,-0.04 -0.0212,-0.0635 v -3.43606 c 0,-0.0235 0.007,-0.0424 0.0212,-0.0565 0.0188,-0.0188 0.04,-0.0282 0.0635,-0.0282 h 0.64911 c 0.0235,0 0.0423,0.009 0.0564,0.0282 0.0188,0.0141 0.0282,0.033 0.0282,0.0565 v 0.18344 c 0,0.0141 0.005,0.0235 0.0141,0.0282 0.009,0.005 0.0188,-3e-5 0.0282,-0.0141 0.18815,-0.22578 0.44685,-0.33867 0.77611,-0.33867 z m 4.45205,1.25589 c 0.0141,0.15522 0.0212,0.33396 0.0212,0.53622 l -0.007,0.30339 c 0,0.0565 -0.0282,0.0847 -0.0847,0.0847 h -1.89089 c -0.0235,0 -0.0353,0.0118 -0.0353,0.0353 0.009,0.13171 0.0188,0.22813 0.0282,0.28928 0.0235,0.15523 0.0894,0.27988 0.19755,0.37395 0.10819,0.0941 0.24459,0.14111 0.40922,0.14111 0.14111,-0.005 0.25871,-0.04 0.35278,-0.10584 0.0988,-0.0659 0.17404,-0.15759 0.22578,-0.27516 0.0235,-0.0517 0.0588,-0.0706 0.10583,-0.0565 l 0.57856,0.11995 c 0.0565,0.0188 0.0753,0.0541 0.0564,0.10583 -0.0941,0.29163 -0.25635,0.51741 -0.48683,0.67733 -0.22578,0.15523 -0.5033,0.23284 -0.83256,0.23284 -0.39041,0 -0.7032,-0.0941 -0.93838,-0.28222 -0.23519,-0.18815 -0.38806,-0.44921 -0.45862,-0.78317 -0.0235,-0.127 -0.04,-0.26106 -0.0494,-0.40217 -0.005,-0.14111 -0.007,-0.32925 -0.007,-0.56444 0,-0.24459 0.0118,-0.43039 0.0353,-0.55739 0.047,-0.34337 0.19281,-0.61619 0.43744,-0.81845 0.24459,-0.20696 0.55504,-0.31044 0.93134,-0.31044 0.40922,0 0.73848,0.11524 0.98777,0.34572 0.254,0.23048 0.39511,0.53387 0.42334,0.91017 z m -1.40406,-0.55034 c -0.15522,0 -0.28457,0.047 -0.38805,0.14112 -0.0988,0.0894 -0.15993,0.21166 -0.18345,0.36688 -0.0141,0.10349 -0.0212,0.22108 -0.0212,0.35278 0,0.0235 0.0118,0.0353 0.0353,0.0353 h 1.12184 c 0.0235,0 0.0353,-0.0118 0.0353,-0.0353 -0.009,-0.15993 -0.0188,-0.27517 -0.0282,-0.34572 -0.0188,-0.15522 -0.0799,-0.27987 -0.18344,-0.37394 -0.10349,-0.0941 -0.23284,-0.14112 -0.38806,-0.14112 z"
       id="text1"
       aria-label="Rainy Days  Pushing the Comfort Zone" /><path
       style="font-size:5.64444px;line-height:1;font-family:'Source Sans 3';-inkscape-font-specification:'Source Sans 3, ';letter-spacing:0px;fill:#0a3641;stroke-width:0;stroke-linecap:round;paint-order:fill markers stroke"
       d="m 107.69768,150.70175 c -0.24459,0 -0.46849,-0.0564 -0.67169,-0.16933 -0.19944,-0.11665 -0.35748,-0.28034 -0.47413,-0.49107 -0.11665,-0.21449 -0.17498,-0.47413 -0.17498,-0.77893 0,-0.29727 0.0602,-0.55315 0.18062,-0.76764 0.12041,-0.21449 0.2747,-0.38007 0.46285,-0.49672 0.18815,-0.11665 0.38758,-0.17497 0.59831,-0.17497 0.2333,0 0.43085,0.0546 0.59266,0.16369 0.16557,0.10536 0.28975,0.254 0.37253,0.44591 0.0828,0.19191 0.12418,0.41768 0.12418,0.67733 0,0.0489 -0.002,0.096 -0.006,0.14111 0,0.0451 -0.006,0.0903 -0.0169,0.13547 h -1.97555 v -0.36689 h 1.58044 c 0,-0.26341 -0.0583,-0.46473 -0.17497,-0.60396 -0.11289,-0.14299 -0.27658,-0.21449 -0.49107,-0.21449 -0.12418,0 -0.24648,0.0358 -0.36689,0.10725 -0.12041,0.0677 -0.22013,0.17874 -0.29915,0.33302 -0.0753,0.15428 -0.11289,0.35936 -0.11289,0.61524 0,0.23331 0.0395,0.42898 0.11853,0.58703 0.0828,0.15804 0.19379,0.27845 0.33302,0.36124 0.13923,0.079 0.29163,0.11853 0.4572,0.11853 0.13171,0 0.254,-0.0188 0.36689,-0.0564 0.11665,-0.0377 0.22202,-0.0885 0.31609,-0.1524 l 0.16933,0.3048 c -0.12041,0.0828 -0.25588,0.15052 -0.4064,0.2032 -0.14675,0.0527 -0.3142,0.079 -0.50235,0.079 z m 2.40453,0 c -0.19943,0 -0.38946,-0.0339 -0.57009,-0.1016 -0.17686,-0.0715 -0.32738,-0.16933 -0.45155,-0.29351 l 0.21449,-0.27093 c 0.12041,0.0978 0.24459,0.17309 0.37253,0.22577 0.1317,0.0527 0.28222,0.079 0.45155,0.079 0.18063,0 0.31609,-0.0414 0.4064,-0.12418 0.0903,-0.0865 0.13547,-0.18815 0.13547,-0.3048 0,-0.0941 -0.032,-0.17121 -0.096,-0.23142 -0.0602,-0.064 -0.13734,-0.11668 -0.23143,-0.15805 -0.0903,-0.0451 -0.18814,-0.0865 -0.29351,-0.12417 -0.13547,-0.0489 -0.26529,-0.10538 -0.38946,-0.16934 -0.12418,-0.0677 -0.22578,-0.15052 -0.3048,-0.24835 -0.0753,-0.1016 -0.11289,-0.22766 -0.11289,-0.37818 0,-0.22201 0.0828,-0.4064 0.24835,-0.55316 0.16933,-0.15051 0.40264,-0.22577 0.69991,-0.22577 0.16933,0 0.32738,0.0301 0.47414,0.0903 0.14675,0.0565 0.27281,0.12984 0.37817,0.22013 l -0.21449,0.26529 c -0.0978,-0.0677 -0.19755,-0.12041 -0.29915,-0.15804 -0.1016,-0.0377 -0.21449,-0.0565 -0.33867,-0.0565 -0.17309,0 -0.30103,0.0395 -0.38382,0.11853 -0.079,0.079 -0.11853,0.17122 -0.11853,0.27658 0,0.0828 0.0245,0.1524 0.0734,0.20885 0.0489,0.0527 0.11667,0.0997 0.2032,0.14111 0.0903,0.0414 0.19191,0.0809 0.3048,0.11853 0.14299,0.0527 0.27845,0.11287 0.4064,0.18062 0.1317,0.064 0.23706,0.14867 0.31608,0.254 0.0828,0.1016 0.12418,0.23519 0.12418,0.40076 0,0.15052 -0.0395,0.28787 -0.11853,0.41204 -0.0753,0.12041 -0.18815,0.21825 -0.33867,0.29351 -0.14675,0.0753 -0.32926,0.11289 -0.54751,0.11289 z m 2.39889,-0.0169 c -0.28975,0 -0.49295,-0.0847 -0.6096,-0.254 -0.11665,-0.16933 -0.17498,-0.38947 -0.17498,-0.6604 V 148.269 h -0.4064 v -0.34996 l 0.42898,-0.0282 0.0564,-0.88053 h 0.38947 v 0.88053 h 0.74507 v 0.37818 h -0.74507 v 1.50706 c 0,0.16557 0.0301,0.2954 0.0903,0.38947 0.064,0.0941 0.17501,0.14111 0.33302,0.14111 0.0489,0 0.0997,-0.004 0.1524,-0.0113 0.0527,-0.0113 0.10535,-0.0301 0.15805,-0.0564 l 0.1016,0.32737 c -0.0715,0.0339 -0.1524,0.0621 -0.24271,0.0847 -0.0903,0.0226 -0.18251,0.0339 -0.27658,0.0339 z m 1.32387,0.0169 c -0.0903,0 -0.16934,-0.032 -0.23707,-0.096 -0.0677,-0.0677 -0.1016,-0.1524 -0.1016,-0.254 0,-0.10913 0.0339,-0.19568 0.1016,-0.25965 0.0677,-0.0677 0.14676,-0.1016 0.23707,-0.1016 0.0941,0 0.17309,0.0339 0.23706,0.1016 0.064,0.064 0.096,0.15055 0.096,0.25965 0,0.1016 -0.032,0.18627 -0.096,0.254 -0.0639,0.064 -0.14295,0.096 -0.23706,0.096 z m 2.3368,-0.0677 v -3.70275 h 0.59267 l 0.69991,1.98119 c 0.0451,0.12418 0.0865,0.24836 0.12418,0.37254 0.0414,0.12417 0.0828,0.25588 0.12417,0.39511 h 0.0226 c 0.0414,-0.13923 0.0809,-0.27094 0.11853,-0.39511 0.0376,-0.12418 0.0771,-0.24836 0.11854,-0.37254 l 0.69991,-1.98119 h 0.58702 v 3.70275 h -0.44027 v -2.03764 c 0,-0.10913 0.004,-0.23142 0.0113,-0.36689 0.008,-0.13547 0.0151,-0.26905 0.0226,-0.40076 0.0113,-0.13547 0.0226,-0.25776 0.0339,-0.36689 h -0.0226 l -0.28787,0.89182 -0.69426,1.91347 h -0.34431 l -0.69427,-1.91347 -0.28787,-0.89182 h -0.0226 c 0.0113,0.10913 0.0207,0.23142 0.0282,0.36689 0.0113,0.13171 0.0207,0.26529 0.0282,0.40076 0.008,0.13547 0.0113,0.25776 0.0113,0.36689 v 2.03764 z m 4.10351,0 v -3.70275 h 0.59266 l 0.69991,1.98119 c 0.0451,0.12418 0.0865,0.24836 0.12418,0.37254 0.0414,0.12417 0.0828,0.25588 0.12418,0.39511 h 0.0226 c 0.0414,-0.13923 0.0809,-0.27094 0.11853,-0.39511 0.0376,-0.12418 0.0771,-0.24836 0.11853,-0.37254 l 0.69991,-1.98119 h 0.58702 v 3.70275 h -0.44026 v -2.03764 c 0,-0.10913 0.004,-0.23142 0.0113,-0.36689 0.008,-0.13547 0.0151,-0.26905 0.0226,-0.40076 0.0113,-0.13547 0.0226,-0.25776 0.0339,-0.36689 h -0.0226 l -0.28786,0.89182 -0.69427,1.91347 h -0.34431 l -0.69427,-1.91347 -0.28786,-0.89182 h -0.0226 c 0.0113,0.10913 0.0207,0.23142 0.0282,0.36689 0.0113,0.13171 0.0207,0.26529 0.0282,0.40076 0.008,0.13547 0.0113,0.25776 0.0113,0.36689 v 2.03764 z m 3.68017,0 1.07809,-1.91347 -1.00471,-1.78928 h 0.51928 l 0.50236,0.94826 c 0.0489,0.0828 0.0941,0.16557 0.13547,0.24836 0.0451,0.0828 0.0959,0.17873 0.1524,0.28786 h 0.0226 c 0.0527,-0.10913 0.0978,-0.20508 0.13547,-0.28786 0.0414,-0.0828 0.0847,-0.16557 0.12982,-0.24836 l 0.49107,-0.94826 h 0.49671 l -1.01036,1.81186 1.07809,1.89089 h -0.51929 l -0.54186,-0.99907 c -0.0489,-0.0903 -0.0997,-0.1825 -0.1524,-0.27658 -0.0489,-0.0978 -0.1035,-0.20319 -0.16369,-0.31608 h -0.0226 c -0.0527,0.11289 -0.10347,0.21825 -0.1524,0.31608 -0.0451,0.0941 -0.0922,0.18627 -0.14111,0.27658 l -0.53622,0.99907 z m 2.8956,0 1.07808,-1.91347 -1.00471,-1.78928 h 0.51929 l 0.50236,0.94826 c 0.0489,0.0828 0.0941,0.16557 0.13546,0.24836 0.0451,0.0828 0.0959,0.17873 0.1524,0.28786 h 0.0226 c 0.0527,-0.10913 0.0978,-0.20508 0.13547,-0.28786 0.0414,-0.0828 0.0847,-0.16557 0.12982,-0.24836 l 0.49107,-0.94826 h 0.49671 l -1.01036,1.81186 1.07809,1.89089 h -0.51929 l -0.54186,-0.99907 c -0.0489,-0.0903 -0.0997,-0.1825 -0.1524,-0.27658 -0.0489,-0.0978 -0.1035,-0.20319 -0.16369,-0.31608 h -0.0226 c -0.0527,0.11289 -0.10347,0.21825 -0.1524,0.31608 -0.0451,0.0941 -0.0922,0.18627 -0.14111,0.27658 l -0.53622,0.99907 z m 3.97369,0 -1.16276,-3.70275 h 0.50236 l 0.57008,1.99813 c 0.0451,0.15051 0.0865,0.29162 0.12418,0.42333 0.0376,0.12794 0.0752,0.25776 0.11289,0.38947 0.0377,0.12794 0.0791,0.26529 0.12418,0.41204 h 0.0226 c 0.0414,-0.14675 0.0809,-0.2841 0.11853,-0.41204 0.0376,-0.13171 0.0752,-0.26153 0.11289,-0.38947 0.0376,-0.13171 0.079,-0.27282 0.12418,-0.42333 l 0.61524,-1.99813 h 0.47978 l -1.19662,3.70275 z m 4.54942,0.0677 c -0.12794,0 -0.25964,-0.0301 -0.39511,-0.0903 -0.13547,-0.064 -0.26529,-0.15055 -0.38947,-0.25964 h -0.0169 l -0.0395,0.28222 h -0.37253 v -4.01884 h 0.46285 v 1.09502 l -0.0113,0.49671 c 0.12417,-0.10913 0.25964,-0.19944 0.4064,-0.27093 0.15051,-0.0753 0.30103,-0.11289 0.45155,-0.11289 0.23707,0 0.4365,0.0583 0.59831,0.17497 0.16181,0.11289 0.2841,0.2747 0.36689,0.48543 0.0828,0.20696 0.12418,0.45155 0.12418,0.73377 0,0.31233 -0.0564,0.5795 -0.16933,0.80151 -0.10913,0.22202 -0.254,0.39135 -0.43463,0.508 -0.18062,0.11665 -0.37441,0.17498 -0.58137,0.17498 z m -0.079,-0.38947 c 0.15052,0 0.28411,-0.0433 0.40076,-0.12982 0.12041,-0.0865 0.21449,-0.21072 0.28222,-0.37253 0.0677,-0.16557 0.1016,-0.36125 0.1016,-0.58702 0,-0.19944 -0.0245,-0.37442 -0.0734,-0.52494 -0.0489,-0.15428 -0.12607,-0.27281 -0.23142,-0.35559 -0.10536,-0.0865 -0.24459,-0.12983 -0.41769,-0.12983 -0.11289,0 -0.23142,0.032 -0.3556,0.096 -0.12041,0.0602 -0.24647,0.15239 -0.37817,0.27658 v 1.43933 c 0.12041,0.10536 0.23895,0.18062 0.3556,0.22578 0.12041,0.0414 0.22577,0.0621 0.31608,0.0621 z m 2.01123,1.50143 c -0.0602,0 -0.11853,-0.006 -0.17498,-0.0169 -0.0527,-0.0113 -0.10158,-0.0244 -0.14675,-0.0395 l 0.1016,-0.36124 c 0.0339,0.0113 0.0677,0.0188 0.1016,0.0226 0.0339,0.008 0.0658,0.0113 0.0959,0.0113 0.15805,0 0.28599,-0.0564 0.38383,-0.16933 0.1016,-0.10913 0.18062,-0.24836 0.23706,-0.41769 l 0.0621,-0.2032 -1.10066,-2.74884 h 0.47977 l 0.5588,1.51835 c 0.0451,0.11665 0.0903,0.24271 0.13547,0.37818 0.0451,0.13547 0.0884,0.26717 0.12982,0.39511 h 0.0226 c 0.0414,-0.12794 0.0809,-0.25776 0.11853,-0.38946 0.0414,-0.13547 0.079,-0.26341 0.11289,-0.38383 l 0.49107,-1.51835 h 0.45155 l -1.03293,2.96898 c -0.064,0.18062 -0.14114,0.34243 -0.23142,0.48542 -0.0903,0.14675 -0.19944,0.26152 -0.32738,0.34431 -0.12794,0.0828 -0.2841,0.12418 -0.46849,0.12418 z m 4.42525,-1.11196 c -0.22201,0 -0.41581,-0.0489 -0.58138,-0.14675 -0.16557,-0.1016 -0.29915,-0.25212 -0.40075,-0.45156 l 0.31609,-0.20884 c 0.0753,0.13547 0.16557,0.23518 0.27093,0.29915 0.10913,0.0602 0.23142,0.0903 0.36689,0.0903 0.2032,0 0.35372,-0.0602 0.45155,-0.18062 0.1016,-0.12418 0.1524,-0.32926 0.1524,-0.61524 v -2.55693 h 0.46849 v 2.60208 c 0,0.21449 -0.0358,0.41017 -0.10724,0.58702 -0.0677,0.17686 -0.17874,0.31797 -0.33302,0.42334 -0.15429,0.10536 -0.35561,0.15804 -0.60396,0.15804 z m 2.63031,0 c -0.15052,0 -0.28787,-0.0301 -0.41204,-0.0903 -0.12041,-0.064 -0.21637,-0.15243 -0.28787,-0.26529 -0.0715,-0.11665 -0.10724,-0.25776 -0.10724,-0.42333 0,-0.30857 0.13547,-0.54187 0.4064,-0.69991 0.27093,-0.15805 0.69991,-0.26905 1.28693,-0.33302 -0.004,-0.11289 -0.0228,-0.22202 -0.0565,-0.32738 -0.0301,-0.10537 -0.0865,-0.19003 -0.16933,-0.254 -0.0828,-0.064 -0.19756,-0.096 -0.34431,-0.096 -0.15805,0 -0.30668,0.0301 -0.44591,0.0903 -0.13923,0.0565 -0.2634,0.12044 -0.37253,0.19192 l -0.18063,-0.31609 c 0.0828,-0.0565 0.18063,-0.11103 0.29352,-0.16369 0.11289,-0.0565 0.23518,-0.10162 0.36688,-0.13547 0.13171,-0.0376 0.27094,-0.0564 0.41769,-0.0564 0.22201,0 0.40264,0.047 0.54187,0.14111 0.14299,0.0903 0.24647,0.22013 0.31044,0.38946 0.0677,0.16933 0.1016,0.36877 0.1016,0.59831 v 1.68205 h -0.38382 l -0.0395,-0.32738 h -0.0169 c -0.13171,0.10913 -0.27282,0.2032 -0.42334,0.28222 -0.15051,0.0753 -0.31232,0.11289 -0.48542,0.11289 z m 0.12982,-0.38382 c 0.13547,0 0.26153,-0.0301 0.37818,-0.0903 0.12041,-0.0602 0.24647,-0.14863 0.37818,-0.26529 v -0.73942 c -0.30856,0.0376 -0.55315,0.0865 -0.73378,0.14675 -0.17686,0.0565 -0.3048,0.12796 -0.38382,0.21449 -0.079,0.0866 -0.11853,0.19003 -0.11853,0.31045 0,0.15051 0.047,0.25964 0.14111,0.32737 0.0941,0.064 0.20696,0.096 0.33866,0.096 z m 3.17218,0.38382 c -0.24459,0 -0.46473,-0.0564 -0.6604,-0.16933 -0.19567,-0.11289 -0.34996,-0.27658 -0.46285,-0.49107 -0.11289,-0.21449 -0.16933,-0.47225 -0.16933,-0.77329 0,-0.30856 0.0602,-0.57008 0.18062,-0.78457 0.12418,-0.21449 0.28599,-0.37818 0.48542,-0.49107 0.2032,-0.11289 0.42145,-0.16933 0.65476,-0.16933 0.18062,0 0.3349,0.0301 0.46284,0.0903 0.13171,0.0602 0.2446,0.13734 0.33867,0.23142 l -0.23142,0.28787 c -0.0677,-0.0677 -0.14864,-0.12042 -0.24271,-0.15805 -0.0903,-0.0414 -0.1938,-0.0621 -0.31045,-0.0621 -0.16181,0 -0.30856,0.0452 -0.44026,0.13547 -0.12794,0.0865 -0.22954,0.20884 -0.3048,0.36689 -0.0753,0.15804 -0.11289,0.34242 -0.11289,0.55315 0,0.20697 0.0358,0.38947 0.10724,0.54751 0.0715,0.15805 0.17122,0.28223 0.29916,0.37254 0.12794,0.0866 0.27658,0.12982 0.44591,0.12982 0.12794,0 0.24647,-0.0245 0.3556,-0.0734 0.10913,-0.0489 0.2032,-0.11102 0.28222,-0.18626 l 0.2032,0.28222 c -0.11665,0.10913 -0.24836,0.19756 -0.39511,0.26529 -0.14675,0.064 -0.30856,0.096 -0.48542,0.096 z m 1.48448,-0.0677 v -4.01884 h 0.46284 v 2.71497 h 0.0113 l 1.16276,-1.43933 h 0.51929 l -0.9144,1.10631 1.03857,1.63689 h -0.508 l -0.80151,-1.3208 -0.508,0.59831 v 0.72249 z m 3.96805,0 v -3.70275 h 2.1336 v 0.39511 h -1.66511 v 1.16275 h 1.40547 v 0.40076 h -1.40547 v 1.34337 h 1.72156 v 0.40076 z m 3.65941,0.0508 c -0.28975,0 -0.49295,-0.0847 -0.6096,-0.254 -0.11665,-0.16933 -0.17498,-0.38947 -0.17498,-0.6604 V 148.269 h -0.4064 v -0.34996 l 0.42898,-0.0282 0.0564,-0.88053 h 0.38947 v 0.88053 h 0.74507 v 0.37818 h -0.74507 v 1.50706 c 0,0.16557 0.0301,0.2954 0.0903,0.38947 0.064,0.0941 0.17501,0.14111 0.33302,0.14111 0.0489,0 0.0997,-0.004 0.1524,-0.0113 0.0527,-0.0113 0.10535,-0.0301 0.15805,-0.0564 l 0.1016,0.32737 c -0.0715,0.0339 -0.1524,0.0621 -0.24271,0.0847 -0.0903,0.0226 -0.18251,0.0339 -0.27658,0.0339 z m 1.70461,0.0169 c -0.19943,0 -0.38946,-0.0339 -0.57008,-0.1016 -0.17686,-0.0715 -0.32738,-0.16933 -0.45156,-0.29351 l 0.21449,-0.27093 c 0.12041,0.0978 0.24459,0.17309 0.37253,0.22577 0.13171,0.0527 0.28223,0.079 0.45156,0.079 0.18062,0 0.31609,-0.0414 0.4064,-0.12418 0.0903,-0.0865 0.13546,-0.18815 0.13546,-0.3048 0,-0.0941 -0.032,-0.17121 -0.0959,-0.23142 -0.0602,-0.064 -0.13734,-0.11668 -0.23142,-0.15805 -0.0903,-0.0451 -0.18815,-0.0865 -0.29351,-0.12417 -0.13547,-0.0489 -0.26529,-0.10538 -0.38947,-0.16934 -0.12418,-0.0677 -0.22578,-0.15052 -0.3048,-0.24835 -0.0753,-0.1016 -0.11289,-0.22766 -0.11289,-0.37818 0,-0.22201 0.0828,-0.4064 0.24836,-0.55316 0.16933,-0.15051 0.40264,-0.22577 0.69991,-0.22577 0.16933,0 0.32738,0.0301 0.47413,0.0903 0.14675,0.0565 0.27281,0.12984 0.37818,0.22013 l -0.21449,0.26529 c -0.0978,-0.0677 -0.19756,-0.12041 -0.29916,-0.15804 -0.1016,-0.0377 -0.21449,-0.0565 -0.33866,-0.0565 -0.1731,0 -0.30104,0.0395 -0.38383,0.11853 -0.079,0.079 -0.11853,0.17122 -0.11853,0.27658 0,0.0828 0.0245,0.1524 0.0734,0.20885 0.0489,0.0527 0.11667,0.0997 0.2032,0.14111 0.0903,0.0414 0.19191,0.0809 0.3048,0.11853 0.14299,0.0527 0.27846,0.11287 0.4064,0.18062 0.1317,0.064 0.23706,0.14867 0.31609,0.254 0.0828,0.1016 0.12418,0.23519 0.12418,0.40076 0,0.15052 -0.0395,0.28787 -0.11854,0.41204 -0.0753,0.12041 -0.18815,0.21825 -0.33866,0.29351 -0.14676,0.0753 -0.32927,0.11289 -0.54752,0.11289 z m 3.84952,0 c -0.26341,0 -0.50424,-0.0489 -0.72249,-0.14675 -0.21825,-0.1016 -0.41016,-0.23707 -0.57573,-0.4064 l 0.26529,-0.3048 c 0.1317,0.13923 0.28786,0.24835 0.46849,0.32737 0.18438,0.079 0.37441,0.11854 0.57008,0.11854 0.24459,0 0.43462,-0.0546 0.57009,-0.16369 0.13547,-0.11289 0.2032,-0.25964 0.2032,-0.44027 0,-0.12794 -0.0282,-0.22954 -0.0847,-0.3048 -0.0527,-0.0753 -0.12605,-0.13923 -0.22014,-0.19191 -0.0903,-0.0527 -0.19379,-0.10535 -0.31044,-0.15804 l -0.53058,-0.23143 c -0.12041,-0.0527 -0.23895,-0.11852 -0.3556,-0.19755 -0.11289,-0.079 -0.20696,-0.17874 -0.28222,-0.29916 -0.0753,-0.12417 -0.11289,-0.27657 -0.11289,-0.4572 0,-0.18815 0.0489,-0.3556 0.14676,-0.50235 0.1016,-0.15052 0.23895,-0.26717 0.41204,-0.34996 0.17686,-0.0865 0.37818,-0.12982 0.60396,-0.12982 0.22577,0 0.43273,0.0414 0.62088,0.12418 0.18815,0.0828 0.3462,0.19003 0.47414,0.32173 l -0.254,0.3048 c -0.11665,-0.1016 -0.24459,-0.1825 -0.38382,-0.24271 -0.13923,-0.064 -0.29163,-0.096 -0.4572,-0.096 -0.20697,0 -0.37442,0.0489 -0.50236,0.14675 -0.12418,0.0978 -0.18627,0.22954 -0.18627,0.39511 0,0.11665 0.0301,0.21261 0.0903,0.28787 0.0602,0.0753 0.13734,0.13735 0.23143,0.18627 0.0978,0.0489 0.19567,0.096 0.29351,0.14111 l 0.52493,0.22577 c 0.14675,0.064 0.27658,0.13738 0.38947,0.22014 0.11665,0.0828 0.20696,0.18626 0.27093,0.31044 0.0677,0.12418 0.1016,0.27658 0.1016,0.4572 0,0.19567 -0.0508,0.37441 -0.1524,0.53622 -0.0978,0.15805 -0.24271,0.28411 -0.43462,0.37818 -0.18815,0.0941 -0.41204,0.14111 -0.67169,0.14111 z m 3.05364,0 c -0.24459,0 -0.46848,-0.0564 -0.67168,-0.16933 -0.19944,-0.11665 -0.35749,-0.28034 -0.47414,-0.49107 -0.11665,-0.21449 -0.17497,-0.47413 -0.17497,-0.77893 0,-0.29727 0.0602,-0.55315 0.18062,-0.76764 0.12041,-0.21449 0.27469,-0.38007 0.46284,-0.49672 0.18815,-0.11665 0.38758,-0.17497 0.59831,-0.17497 0.23331,0 0.43086,0.0546 0.59267,0.16369 0.16557,0.10536 0.28974,0.254 0.37253,0.44591 0.0828,0.19191 0.12418,0.41768 0.12418,0.67733 0,0.0489 -0.002,0.096 -0.006,0.14111 0,0.0451 -0.006,0.0903 -0.0169,0.13547 h -1.97555 v -0.36689 h 1.58044 c 0,-0.26341 -0.0583,-0.46473 -0.17498,-0.60396 -0.11289,-0.14299 -0.27657,-0.21449 -0.49106,-0.21449 -0.12418,0 -0.24648,0.0358 -0.36689,0.10725 -0.12041,0.0677 -0.22013,0.17874 -0.29916,0.33302 -0.0753,0.15428 -0.11289,0.35936 -0.11289,0.61524 0,0.23331 0.0395,0.42898 0.11854,0.58703 0.0828,0.15804 0.19379,0.27845 0.33302,0.36124 0.13923,0.079 0.29163,0.11853 0.4572,0.11853 0.1317,0 0.254,-0.0188 0.36689,-0.0564 0.11665,-0.0377 0.22202,-0.0885 0.31609,-0.1524 l 0.16933,0.3048 c -0.12041,0.0828 -0.25588,0.15052 -0.4064,0.2032 -0.14675,0.0527 -0.31421,0.079 -0.50236,0.079 z m 2.17876,-0.0169 c -0.11665,0 -0.21073,-0.0226 -0.28222,-0.0677 -0.0715,-0.0489 -0.12418,-0.11855 -0.15805,-0.20884 -0.0339,-0.0941 -0.0508,-0.20696 -0.0508,-0.33867 v -3.45439 h 0.46285 v 3.48826 c 0,0.0753 0.0132,0.12794 0.0395,0.15804 0.0263,0.0263 0.0583,0.0395 0.0959,0.0395 h 0.0395 c 0.0151,-0.004 0.0339,-0.008 0.0564,-0.0113 l 0.0677,0.34995 c -0.0339,0.0113 -0.0734,0.0207 -0.11853,0.0282 -0.0414,0.0113 -0.0922,0.0169 -0.1524,0.0169 z m 1.43933,0 c -0.11665,0 -0.21073,-0.0226 -0.28222,-0.0677 -0.0715,-0.0489 -0.12418,-0.11855 -0.15805,-0.20884 -0.0339,-0.0941 -0.0508,-0.20696 -0.0508,-0.33867 v -3.45439 h 0.46285 v 3.48826 c 0,0.0753 0.0132,0.12794 0.0395,0.15804 0.0263,0.0263 0.0583,0.0395 0.096,0.0395 h 0.0395 c 0.0151,-0.004 0.0339,-0.008 0.0564,-0.0113 l 0.0677,0.34995 c -0.0339,0.0113 -0.0734,0.0207 -0.11853,0.0282 -0.0414,0.0113 -0.0922,0.0169 -0.1524,0.0169 z m 1.6651,0.0169 c -0.19943,0 -0.38946,-0.0339 -0.57009,-0.1016 -0.17685,-0.0715 -0.32737,-0.16933 -0.45155,-0.29351 l 0.21449,-0.27093 c 0.12041,0.0978 0.24459,0.17309 0.37253,0.22577 0.13171,0.0527 0.28223,0.079 0.45156,0.079 0.18062,0 0.31609,-0.0414 0.4064,-0.12418 0.0903,-0.0865 0.13546,-0.18815 0.13546,-0.3048 0,-0.0941 -0.032,-0.17121 -0.0959,-0.23142 -0.0602,-0.064 -0.13734,-0.11668 -0.23143,-0.15805 -0.0903,-0.0451 -0.18814,-0.0865 -0.29351,-0.12417 -0.13547,-0.0489 -0.26529,-0.10538 -0.38946,-0.16934 -0.12418,-0.0677 -0.22578,-0.15052 -0.3048,-0.24835 -0.0753,-0.1016 -0.11289,-0.22766 -0.11289,-0.37818 0,-0.22201 0.0828,-0.4064 0.24835,-0.55316 0.16933,-0.15051 0.40264,-0.22577 0.69991,-0.22577 0.16933,0 0.32738,0.0301 0.47414,0.0903 0.14675,0.0565 0.27281,0.12984 0.37818,0.22013 l -0.21449,0.26529 c -0.0978,-0.0677 -0.19756,-0.12041 -0.29916,-0.15804 -0.1016,-0.0377 -0.21449,-0.0565 -0.33867,-0.0565 -0.17309,0 -0.30103,0.0395 -0.38382,0.11853 -0.079,0.079 -0.11853,0.17122 -0.11853,0.27658 0,0.0828 0.0245,0.1524 0.0734,0.20885 0.0489,0.0527 0.11667,0.0997 0.2032,0.14111 0.0903,0.0414 0.19191,0.0809 0.3048,0.11853 0.14299,0.0527 0.27846,0.11287 0.4064,0.18062 0.1317,0.064 0.23706,0.14867 0.31609,0.254 0.0828,0.1016 0.12417,0.23519 0.12417,0.40076 0,0.15052 -0.0395,0.28787 -0.11853,0.41204 -0.0753,0.12041 -0.18815,0.21825 -0.33867,0.29351 -0.14675,0.0753 -0.32926,0.11289 -0.54751,0.11289 z m 1.8909,0 c -0.0903,0 -0.16934,-0.032 -0.23707,-0.096 -0.0677,-0.0677 -0.1016,-0.1524 -0.1016,-0.254 0,-0.10913 0.0339,-0.19568 0.1016,-0.25965 0.0677,-0.0677 0.14676,-0.1016 0.23707,-0.1016 0.0941,0 0.17309,0.0339 0.23706,0.1016 0.064,0.064 0.096,0.15055 0.096,0.25965 0,0.1016 -0.032,0.18627 -0.096,0.254 -0.064,0.064 -0.14302,0.096 -0.23706,0.096 z"
       id="text2"
       aria-label="est. MMXXV by Jack Ets Sells." /></g></svg>
